<svg width="32" height="32" viewBox="0 0 32 32" fill="none" xmlns="http://www.w3.org/2000/svg">
<path d="M31.4551 8.84454H4.17326C3.87191 8.84454 3.62762 9.08883 3.62762 9.39018V27.9418C3.62762 28.2432 3.87191 28.4875 4.17326 28.4875H31.4551C31.7565 28.4875 32.0007 28.2432 32.0007 27.9418V9.39018C32.0007 9.08883 31.7565 8.84454 31.4551 8.84454Z" fill="url(#paint0_linear_26_97758)"/>
<path d="M27.9834 5.14893H0.545637C0.24429 5.14893 0 5.39322 0 5.69456V24.4021C0 24.7035 0.24429 24.9477 0.545637 24.9477H27.9834C28.2847 24.9477 28.529 24.7035 28.529 24.4021V5.69456C28.529 5.39322 28.2847 5.14893 27.9834 5.14893Z" fill="#043263"/>
<path d="M14.2644 4.83722H27.6715C27.7335 4.83722 27.793 4.86186 27.8368 4.90571C27.8807 4.94956 27.9053 5.00904 27.9053 5.07106V24.0904C27.9053 24.1524 27.8807 24.2119 27.8368 24.2558C27.793 24.2996 27.7335 24.3243 27.6715 24.3243H14.2644V4.83722Z" fill="#49A5E6"/>
<path d="M0.857135 4.83722H14.2642V24.3243H0.857135C0.795116 24.3243 0.735637 24.2996 0.691782 24.2558C0.647928 24.2119 0.623291 24.1524 0.623291 24.0904V5.07106C0.623291 5.00904 0.647928 4.94956 0.691782 4.90571C0.735637 4.86186 0.795116 4.83722 0.857135 4.83722Z" fill="#5AC4C4"/>
<path d="M14.7321 4.44751H27.0479C27.1719 4.44751 27.2909 4.49678 27.3786 4.58449C27.4663 4.6722 27.5156 4.79116 27.5156 4.9152V23.4669C27.5156 23.5909 27.4663 23.7099 27.3786 23.7976C27.2909 23.8853 27.1719 23.9345 27.0479 23.9345H14.2644V4.9152C14.2644 4.79116 14.3137 4.6722 14.4014 4.58449C14.4891 4.49678 14.6081 4.44751 14.7321 4.44751Z" fill="#D4EDFC"/>
<path d="M27.048 4.44751H26.0931L15.7322 23.9345H27.048C27.172 23.9345 27.291 23.8853 27.3787 23.7976C27.4664 23.7099 27.5157 23.5909 27.5157 23.4669V4.9152C27.5157 4.79116 27.4664 4.6722 27.3787 4.58449C27.291 4.49678 27.172 4.44751 27.048 4.44751Z" fill="url(#paint1_linear_26_97758)"/>
<path d="M1.24727 4.44751H14.2646V23.9345H1.24727C1.18525 23.9345 1.12577 23.9099 1.08192 23.8661C1.03806 23.8222 1.01343 23.7627 1.01343 23.7007V4.68135C1.01343 4.61933 1.03806 4.55986 1.08192 4.516C1.12577 4.47215 1.18525 4.44751 1.24727 4.44751Z" fill="#EAF9FA"/>
<path d="M11.3944 4.44751H9.83545V4.29162C9.83545 4.0849 9.91757 3.88665 10.0638 3.74047C10.2099 3.5943 10.4082 3.51218 10.6149 3.51218C10.8217 3.51218 11.0199 3.5943 11.1661 3.74047C11.3123 3.88665 11.3944 4.0849 11.3944 4.29162V4.44751Z" fill="#C49735"/>
<path d="M12.1746 3.51196H10.6157C10.8224 3.51196 11.0207 3.59409 11.1668 3.74027C11.313 3.88645 11.3951 4.08471 11.3951 4.29144V11.5219C11.3952 11.5681 11.4089 11.6133 11.4346 11.6517C11.4603 11.6901 11.4968 11.7201 11.5395 11.7378C11.5822 11.7554 11.6292 11.7601 11.6746 11.7511C11.7199 11.7421 11.7615 11.7198 11.7942 11.6872L12.0086 11.472C12.0303 11.4502 12.0561 11.4329 12.0846 11.4211C12.113 11.4093 12.1435 11.4032 12.1742 11.4032C12.205 11.4032 12.2355 11.4093 12.2639 11.4211C12.2923 11.4329 12.3181 11.4502 12.3399 11.472L12.5542 11.6872C12.5869 11.7201 12.6286 11.7426 12.6741 11.7517C12.7195 11.7609 12.7667 11.7563 12.8096 11.7386C12.8524 11.7209 12.8891 11.6908 12.9148 11.6522C12.9405 11.6137 12.9542 11.5683 12.9541 11.5219V4.29144C12.9541 4.08471 12.872 3.88645 12.7258 3.74027C12.5796 3.59409 12.3814 3.51196 12.1746 3.51196Z" fill="#F8CD50"/>
<path d="M12.9541 4.29144C12.9541 4.08471 12.872 3.88645 12.7258 3.74027C12.5796 3.59409 12.3814 3.51196 12.1746 3.51196H10.6157C10.8224 3.51196 11.0207 3.59409 11.1668 3.74027C11.313 3.88645 11.3951 4.08471 11.3951 4.29144V8.32994L12.9541 5.39831V4.29144Z" fill="url(#paint2_linear_26_97758)"/>
<defs>
<linearGradient id="paint0_linear_26_97758" x1="10.7061" y1="5.29868" x2="24.9223" y2="32.0333" gradientUnits="userSpaceOnUse">
<stop stop-color="#1C2645" stop-opacity="0.5"/>
<stop offset="1" stop-color="#1C2645" stop-opacity="0"/>
</linearGradient>
<linearGradient id="paint1_linear_26_97758" x1="27.5157" y1="14.191" x2="15.7322" y2="14.191" gradientUnits="userSpaceOnUse">
<stop stop-color="#043263" stop-opacity="0.2"/>
<stop offset="1" stop-color="#043263" stop-opacity="0"/>
</linearGradient>
<linearGradient id="paint2_linear_26_97758" x1="9.8962" y1="4.86514" x2="12.5004" y2="6.25028" gradientUnits="userSpaceOnUse">
<stop stop-color="white" stop-opacity="0.4"/>
<stop offset="1" stop-color="white" stop-opacity="0.1"/>
</linearGradient>
</defs>
</svg>
