<svg width="32" height="32" viewBox="0 0 32 32" fill="none" xmlns="http://www.w3.org/2000/svg">
<path d="M2.82666 30.3055C2.82666 31.1741 3.53111 31.8785 4.39969 31.8785H28.2688C28.3919 31.8785 28.515 31.8648 28.6381 31.8375L28.6586 31.8306H28.6723C29.363 31.646 29.8418 31.0236 29.8418 30.3123V7.51017C29.8349 6.75785 29.2946 6.11496 28.556 5.97818C28.4603 5.95766 28.3645 5.95082 28.2688 5.95082H26.9009V4.2752C26.9009 3.80329 26.5179 3.42029 26.046 3.42029C25.5741 3.42029 25.1911 3.80329 25.1911 4.2752V5.95082H7.54576V4.2752C7.54576 3.80329 7.16276 3.42029 6.69085 3.42029C6.21894 3.42029 5.83594 3.80329 5.83594 4.2752V5.95082H4.39969C3.53794 5.94398 2.8335 6.64159 2.82666 7.50333V11.0119V30.3055Z" fill="url(#paint0_linear_12_15305)"/>
<path d="M27.0152 7.71307V26.9998C27.0152 27.8684 26.3108 28.5729 25.4422 28.5729H1.57315C0.704567 28.5729 0.00012207 27.8684 0.00012207 26.9998V7.71307" fill="#D4EDFC"/>
<path d="M25.4422 2.65166H1.57315C0.711406 2.64482 0.00696134 3.34243 0.00012207 4.20418V7.71272H27.0152V4.20418C27.0084 3.34243 26.304 2.64482 25.4422 2.65166Z" fill="#1464A5"/>
<path d="M25.4422 2.65161H19.6083L5.78613 28.5725H25.4422C26.3108 28.5725 27.0152 27.8748 27.0152 27.0063V4.21781C27.0084 3.35606 26.3108 2.65161 25.4422 2.65161Z" fill="url(#paint1_linear_12_15305)"/>
<path d="M3.86455 0.121094C4.33646 0.121094 4.71946 0.504093 4.71946 0.976003V4.32725C4.71946 4.79916 4.33646 5.18216 3.86455 5.18216C3.39264 5.18216 3.00964 4.79916 3.00964 4.32725V0.976003C3.00964 0.504093 3.39264 0.121094 3.86455 0.121094Z" fill="#2DCCCD"/>
<path d="M23.2193 0.121094C23.6912 0.121094 24.0742 0.504093 24.0742 0.976003V4.32725C24.0742 4.79916 23.6912 5.18216 23.2193 5.18216C22.7474 5.18216 22.3644 4.79916 22.3644 4.32725V0.976003C22.3644 0.504093 22.7474 0.121094 23.2193 0.121094Z" fill="#2DCCCD"/>
<path d="M14.0412 12.8832C13.3915 12.8832 12.8649 12.3565 12.8649 11.7068C12.8649 11.0571 13.3915 10.5305 14.0412 10.5305C14.691 10.5305 15.2176 11.0571 15.2176 11.7068C15.2176 12.3565 14.691 12.8832 14.0412 12.8832ZM14.0412 10.8314C13.5625 10.8314 13.1658 11.2212 13.1658 11.7068C13.1658 12.1924 13.5556 12.5822 14.0412 12.5822C14.52 12.5822 14.9166 12.1924 14.9166 11.7068C14.9166 11.2212 14.5268 10.8314 14.0412 10.8314Z" fill="#F8CD50"/>
<path d="M5.71786 15.605C5.06813 15.605 4.5415 15.0783 4.5415 14.4286C4.5415 13.7789 5.06813 13.2523 5.71786 13.2523C6.36759 13.2523 6.89421 13.7789 6.89421 14.4286C6.89421 15.0783 6.36759 15.605 5.71786 15.605ZM5.71786 13.5532C5.23911 13.5532 4.84243 13.943 4.84243 14.4286C4.84243 14.9142 5.23227 15.304 5.71786 15.304C6.20345 15.304 6.59329 14.9142 6.59329 14.4286C6.59329 13.943 6.19661 13.5532 5.71786 13.5532Z" fill="#F8CD50"/>
<path d="M4.47277 21.4797C4.47277 21.9584 4.08293 22.3483 3.60418 22.3483C3.12543 22.3483 2.7356 21.9584 2.7356 21.4797C2.7356 21.0009 3.12543 20.6111 3.60418 20.6111C4.08293 20.6111 4.47277 21.0009 4.47277 21.4797Z" fill="white"/>
<path d="M7.77599 21.4797C7.77599 21.9584 7.38616 22.3483 6.90741 22.3483C6.42866 22.3483 6.03882 21.9584 6.03882 21.4797C6.03882 21.0009 6.42866 20.6111 6.90741 20.6111C7.38616 20.6111 7.77599 21.0009 7.77599 21.4797Z" fill="white"/>
<path d="M11.0797 21.4797C11.0797 21.9584 10.6899 22.3483 10.2111 22.3483C9.73237 22.3483 9.34253 21.9584 9.34253 21.4797C9.34253 21.0009 9.73237 20.6111 10.2111 20.6111C10.6899 20.6111 11.0797 21.0009 11.0797 21.4797Z" fill="white"/>
<path d="M14.3757 21.4797C14.3757 21.9584 13.9859 22.3483 13.5071 22.3483C13.0284 22.3483 12.6385 21.9584 12.6385 21.4797C12.6385 21.0009 13.0284 20.6111 13.5071 20.6111C13.9859 20.6111 14.3757 21.0009 14.3757 21.4797Z" fill="white"/>
<path d="M17.6799 21.4797C17.6799 21.9584 17.2901 22.3483 16.8113 22.3483C16.3326 22.3483 15.9427 21.9584 15.9427 21.4797C15.9427 21.0009 16.3326 20.6111 16.8113 20.6111C17.2901 20.6111 17.6799 21.0009 17.6799 21.4797Z" fill="white"/>
<path d="M20.9759 21.4797C20.9759 21.9584 20.5861 22.3483 20.1074 22.3483C19.6286 22.3483 19.2388 21.9584 19.2388 21.4797C19.2388 21.0009 19.6286 20.6111 20.1074 20.6111C20.5861 20.6111 20.9759 21.0009 20.9759 21.4797Z" fill="#49A5E6"/>
<path d="M24.2797 21.4797C24.2797 21.9584 23.8898 22.3483 23.4111 22.3483C22.9323 22.3483 22.5425 21.9584 22.5425 21.4797C22.5425 21.0009 22.9323 20.6111 23.4111 20.6111C23.8898 20.6111 24.2797 21.0009 24.2797 21.4797Z" fill="#49A5E6"/>
<path d="M4.47277 24.8176C4.47277 25.2964 4.08293 25.6862 3.60418 25.6862C3.12543 25.6862 2.7356 25.2964 2.7356 24.8176C2.7356 24.3389 3.12543 23.9491 3.60418 23.9491C4.08293 23.9422 4.47277 24.3321 4.47277 24.8176C4.47277 24.8108 4.47277 24.8108 4.47277 24.8176Z" fill="white"/>
<path d="M7.77599 24.8176C7.77599 25.2964 7.38616 25.6862 6.90741 25.6862C6.42866 25.6862 6.03882 25.2964 6.03882 24.8176C6.03882 24.3389 6.42866 23.9491 6.90741 23.9491C7.38616 23.9422 7.77599 24.3321 7.77599 24.8176C7.77599 24.8108 7.77599 24.8108 7.77599 24.8176Z" fill="white"/>
<path d="M11.0797 24.8176C11.0797 25.2964 10.6899 25.6862 10.2111 25.6862C9.73237 25.6862 9.34253 25.2964 9.34253 24.8176C9.34253 24.3389 9.73237 23.9491 10.2111 23.9491C10.6899 23.9422 11.0797 24.3321 11.0797 24.8176C11.0797 24.8108 11.0797 24.8108 11.0797 24.8176Z" fill="white"/>
<path d="M14.3757 24.8176C14.3757 25.2964 13.9859 25.6862 13.5071 25.6862C13.0284 25.6862 12.6385 25.2964 12.6385 24.8176C12.6385 24.3389 13.0284 23.9491 13.5071 23.9491C13.9859 23.9422 14.3757 24.3321 14.3757 24.8176C14.3757 24.8108 14.3757 24.8108 14.3757 24.8176Z" fill="white"/>
<path d="M17.6799 24.8176C17.6799 25.2964 17.2901 25.6862 16.8113 25.6862C16.3326 25.6862 15.9427 25.2964 15.9427 24.8176C15.9427 24.3389 16.3326 23.9491 16.8113 23.9491C17.2901 23.9422 17.6799 24.3321 17.6799 24.8176C17.6799 24.8108 17.6799 24.8108 17.6799 24.8176Z" fill="white"/>
<path d="M20.9759 24.8176C20.9759 25.2964 20.5861 25.6862 20.1074 25.6862C19.6286 25.6862 19.2388 25.2964 19.2388 24.8176C19.2388 24.3389 19.6286 23.9491 20.1074 23.9491C20.5861 23.9422 20.9759 24.3321 20.9759 24.8176C20.9759 24.8108 20.9759 24.8108 20.9759 24.8176Z" fill="#49A5E6"/>
<path d="M2.93415 17.3212L2.53748 16.9109L5.20479 14.3325C5.45101 14.0931 5.95027 14.0999 6.19649 14.3325L8.59707 16.6168C8.63127 16.6441 8.75437 16.6441 8.79541 16.6168L13.5282 11.6173C13.6445 11.4942 13.836 11.4258 14.0411 11.4258C14.0411 11.4258 14.0411 11.4258 14.048 11.4258C14.2532 11.4258 14.4378 11.4942 14.5541 11.6173L18.4935 15.755C18.5345 15.7824 18.6576 15.7824 18.6987 15.755L24.0743 9.94165L24.4915 10.3315L19.1159 16.1449C18.9928 16.268 18.8081 16.3432 18.5961 16.3432C18.3909 16.3432 18.1994 16.2748 18.0831 16.1517L14.1437 12.0071C14.1027 11.9798 13.9796 11.9798 13.9385 12.0071L9.21261 17.0066C9.09634 17.1297 8.91168 17.1981 8.71334 17.1981C8.515 17.205 8.33034 17.1366 8.20723 17.0203L5.80665 14.736C5.76561 14.7086 5.64251 14.7086 5.60147 14.736L2.93415 17.3212Z" fill="#1464A5"/>
<defs>
<linearGradient id="paint0_linear_12_15305" x1="7.7409" y1="2.75424" x2="24.4264" y2="34.1354" gradientUnits="userSpaceOnUse">
<stop stop-color="#192647" stop-opacity="0.5"/>
<stop offset="1" stop-color="#192647" stop-opacity="0"/>
</linearGradient>
<linearGradient id="paint1_linear_12_15305" x1="27.0146" y1="15.6127" x2="5.78476" y2="15.6127" gradientUnits="userSpaceOnUse">
<stop stop-color="#043263" stop-opacity="0.2"/>
<stop offset="1" stop-color="#043263" stop-opacity="0"/>
</linearGradient>
</defs>
</svg>
