<svg width="32" height="34" viewBox="0 0 32 34" fill="none" xmlns="http://www.w3.org/2000/svg">
<path d="M2.94092 31.4379C2.94092 31.8551 3.10665 32.2552 3.40165 32.5502C3.69665 32.8452 4.09676 33.011 4.51395 33.011H28.383C28.5072 33.0108 28.6311 32.9971 28.7523 32.9699L28.7728 32.9631H28.7865C29.1215 32.8742 29.4177 32.6771 29.6292 32.4026C29.8407 32.128 29.9556 31.7913 29.956 31.4448V8.64262C29.9527 8.27777 29.8225 7.92544 29.588 7.64596C29.3534 7.36648 29.029 7.17723 28.6703 7.11062C28.5757 7.09136 28.4795 7.08219 28.383 7.08327H27.0152V5.40764C27.0152 5.18091 26.9251 4.96346 26.7648 4.80313C26.6044 4.6428 26.387 4.55273 26.1602 4.55273C25.9335 4.55273 25.7161 4.6428 25.5557 4.80313C25.3954 4.96346 25.3053 5.18091 25.3053 5.40764V7.08327H7.66002V5.40764C7.66002 5.18091 7.56994 4.96346 7.40962 4.80313C7.24929 4.6428 7.03184 4.55273 6.80511 4.55273C6.57837 4.55273 6.36092 4.6428 6.20059 4.80313C6.04027 4.96346 5.9502 5.18091 5.9502 5.40764V7.08327H4.51395C4.09964 7.08108 3.70137 7.24329 3.40648 7.53433C3.1116 7.82537 2.94417 8.22147 2.94092 8.63578V31.4379Z" fill="url(#paint0_linear_12_15007)"/>
<path d="M27.0152 8.58142V27.8682C27.0152 28.2854 26.8495 28.6855 26.5545 28.9805C26.2595 29.2755 25.8594 29.4412 25.4422 29.4412H1.57315C1.15596 29.4412 0.755853 29.2755 0.460853 28.9805C0.165852 28.6855 0.00012207 28.2854 0.00012207 27.8682V8.58142" fill="#D4EDFC"/>
<path d="M25.4422 3.51998H1.57315C1.15884 3.51779 0.760572 3.68001 0.465688 3.97105C0.170804 4.26208 0.0033758 4.65819 0.00012207 5.0725V8.58104H27.0152V5.0725C27.012 4.65819 26.8446 4.26208 26.5497 3.97105C26.2548 3.68001 25.8565 3.51779 25.4422 3.51998Z" fill="#1464A5"/>
<path d="M25.4422 3.51996H19.6083L5.78613 29.4408H25.4422C25.6484 29.4415 25.8527 29.4016 26.0434 29.3232C26.2342 29.2448 26.4076 29.1296 26.5537 28.9841C26.6998 28.8386 26.8158 28.6657 26.895 28.4753C26.9742 28.285 27.0151 28.0808 27.0152 27.8746V5.08615C27.0134 4.67014 26.8469 4.27179 26.5521 3.97827C26.2573 3.68475 25.8582 3.51995 25.4422 3.51996Z" fill="url(#paint1_linear_12_15007)"/>
<path d="M3.86455 0.989441C4.09129 0.989441 4.30874 1.07951 4.46906 1.23984C4.62939 1.40016 4.71946 1.61761 4.71946 1.84435V5.19559C4.71946 5.42233 4.62939 5.63978 4.46906 5.80011C4.30874 5.96043 4.09129 6.0505 3.86455 6.0505C3.63782 6.0505 3.42037 5.96043 3.26004 5.80011C3.09971 5.63978 3.00964 5.42233 3.00964 5.19559V1.84435C3.00964 1.61761 3.09971 1.40016 3.26004 1.23984C3.42037 1.07951 3.63782 0.989441 3.86455 0.989441Z" fill="#2DCCCD"/>
<path d="M23.2193 0.989441C23.446 0.989441 23.6635 1.07951 23.8238 1.23984C23.9841 1.40016 24.0742 1.61761 24.0742 1.84435V5.19559C24.0742 5.42233 23.9841 5.63978 23.8238 5.80011C23.6635 5.96043 23.446 6.0505 23.2193 6.0505C22.9926 6.0505 22.7751 5.96043 22.6148 5.80011C22.4545 5.63978 22.3644 5.42233 22.3644 5.19559V1.84435C22.3644 1.61761 22.4545 1.40016 22.6148 1.23984C22.7751 1.07951 22.9926 0.989441 23.2193 0.989441Z" fill="#2DCCCD"/>
<path d="M13.6169 12.643C13.6169 12.8026 13.5695 12.9587 13.4809 13.0914C13.3922 13.2241 13.2661 13.3276 13.1187 13.3886C12.9712 13.4497 12.8089 13.4657 12.6524 13.4346C12.4958 13.4034 12.352 13.3266 12.2392 13.2137C12.1263 13.1008 12.0495 12.957 12.0183 12.8005C11.9872 12.6439 12.0032 12.4817 12.0642 12.3342C12.1253 12.1867 12.2288 12.0607 12.3615 11.972C12.4942 11.8833 12.6502 11.836 12.8098 11.836C13.0238 11.8364 13.2288 11.9215 13.3801 12.0728C13.5314 12.224 13.6165 12.4291 13.6169 12.643Z" fill="white"/>
<path d="M17.0842 12.643C17.0842 12.8026 17.0368 12.9587 16.9482 13.0914C16.8595 13.2241 16.7334 13.3276 16.586 13.3886C16.4385 13.4497 16.2762 13.4657 16.1197 13.4346C15.9631 13.4034 15.8193 13.3266 15.7065 13.2137C15.5936 13.1008 15.5167 12.957 15.4856 12.8005C15.4545 12.6439 15.4704 12.4817 15.5315 12.3342C15.5926 12.1867 15.696 12.0607 15.8288 11.972C15.9615 11.8833 16.1175 11.836 16.2771 11.836C16.4911 11.8364 16.6961 11.9215 16.8474 12.0728C16.9987 12.224 17.0838 12.4291 17.0842 12.643Z" fill="white"/>
<path d="M20.5523 12.643C20.5523 12.8026 20.505 12.9587 20.4163 13.0914C20.3276 13.2241 20.2016 13.3276 20.0541 13.3886C19.9066 13.4497 19.7444 13.4657 19.5878 13.4346C19.4313 13.4034 19.2875 13.3266 19.1746 13.2137C19.0617 13.1008 18.9849 12.957 18.9537 12.8005C18.9226 12.6439 18.9386 12.4817 18.9997 12.3342C19.0607 12.1867 19.1642 12.0607 19.2969 11.972C19.4296 11.8833 19.5856 11.836 19.7453 11.836C19.9592 11.8364 20.1643 11.9215 20.3155 12.0728C20.4668 12.224 20.5519 12.4291 20.5523 12.643Z" fill="#49A5E6"/>
<path d="M24.0126 12.643C24.0126 12.8026 23.9653 12.9587 23.8766 13.0914C23.7879 13.2241 23.6619 13.3276 23.5144 13.3886C23.367 13.4497 23.2047 13.4657 23.0481 13.4346C22.8916 13.4034 22.7478 13.3266 22.6349 13.2137C22.5221 13.1008 22.4452 12.957 22.4141 12.8005C22.3829 12.6439 22.3989 12.4817 22.46 12.3342C22.5211 12.1867 22.6245 12.0607 22.7572 11.972C22.8899 11.8833 23.046 11.836 23.2056 11.836C23.4195 11.8364 23.6246 11.9215 23.7759 12.0728C23.9271 12.224 24.0123 12.4291 24.0126 12.643Z" fill="#49A5E6"/>
<path d="M3.22125 16.6717C3.22125 16.8313 3.17391 16.9874 3.08524 17.1201C2.99656 17.2528 2.87052 17.3562 2.72305 17.4173C2.57558 17.4784 2.41332 17.4944 2.25677 17.4632C2.10022 17.4321 1.95642 17.3552 1.84355 17.2424C1.73069 17.1295 1.65382 16.9857 1.62269 16.8292C1.59155 16.6726 1.60753 16.5103 1.66861 16.3629C1.72969 16.2154 1.83313 16.0894 1.96585 16.0007C2.09856 15.912 2.2546 15.8647 2.41421 15.8647C2.62814 15.865 2.8332 15.9502 2.98447 16.1015C3.13574 16.2527 3.22088 16.4578 3.22125 16.6717Z" fill="white"/>
<path d="M6.6889 16.6717C6.6889 16.8313 6.64157 16.9874 6.55289 17.1201C6.46421 17.2528 6.33817 17.3562 6.1907 17.4173C6.04324 17.4784 5.88097 17.4944 5.72442 17.4632C5.56787 17.4321 5.42407 17.3552 5.3112 17.2424C5.19834 17.1295 5.12148 16.9857 5.09034 16.8292C5.0592 16.6726 5.07518 16.5103 5.13626 16.3629C5.19734 16.2154 5.30078 16.0894 5.4335 16.0007C5.56622 15.912 5.72225 15.8647 5.88186 15.8647C6.09579 15.865 6.30085 15.9502 6.45212 16.1015C6.60339 16.2527 6.68854 16.4578 6.6889 16.6717Z" fill="white"/>
<path d="M10.1561 16.6717C10.1561 16.8313 10.1087 16.9874 10.0201 17.1201C9.93137 17.2528 9.80533 17.3562 9.65786 17.4173C9.5104 17.4784 9.34813 17.4944 9.19158 17.4632C9.03503 17.4321 8.89123 17.3552 8.77837 17.2424C8.6655 17.1295 8.58864 16.9857 8.5575 16.8292C8.52636 16.6726 8.54234 16.5103 8.60342 16.3629C8.66451 16.2154 8.76795 16.0894 8.90066 16.0007C9.03338 15.912 9.18941 15.8647 9.34903 15.8647C9.56295 15.865 9.76802 15.9502 9.91929 16.1015C10.0706 16.2527 10.1557 16.4578 10.1561 16.6717Z" fill="white"/>
<path d="M13.6169 16.6717C13.6169 16.8313 13.5695 16.9874 13.4809 17.1201C13.3922 17.2528 13.2661 17.3562 13.1187 17.4173C12.9712 17.4784 12.8089 17.4944 12.6524 17.4632C12.4958 17.4321 12.352 17.3552 12.2392 17.2424C12.1263 17.1295 12.0495 16.9857 12.0183 16.8292C11.9872 16.6726 12.0032 16.5103 12.0642 16.3629C12.1253 16.2154 12.2288 16.0894 12.3615 16.0007C12.4942 15.912 12.6502 15.8647 12.8098 15.8647C13.0238 15.865 13.2288 15.9502 13.3801 16.1015C13.5314 16.2527 13.6165 16.4578 13.6169 16.6717Z" fill="white"/>
<path d="M17.0842 16.6717C17.0842 16.8313 17.0368 16.9874 16.9482 17.1201C16.8595 17.2528 16.7334 17.3562 16.586 17.4173C16.4385 17.4784 16.2762 17.4944 16.1197 17.4632C15.9631 17.4321 15.8193 17.3552 15.7065 17.2424C15.5936 17.1295 15.5167 16.9857 15.4856 16.8292C15.4545 16.6726 15.4704 16.5103 15.5315 16.3629C15.5926 16.2154 15.696 16.0894 15.8288 16.0007C15.9615 15.912 16.1175 15.8647 16.2771 15.8647C16.4911 15.865 16.6961 15.9502 16.8474 16.1015C16.9987 16.2527 17.0838 16.4578 17.0842 16.6717Z" fill="white"/>
<path d="M20.5523 16.6717C20.5523 16.8313 20.505 16.9874 20.4163 17.1201C20.3276 17.2528 20.2016 17.3562 20.0541 17.4173C19.9066 17.4784 19.7444 17.4944 19.5878 17.4632C19.4313 17.4321 19.2875 17.3552 19.1746 17.2424C19.0617 17.1295 18.9849 16.9857 18.9537 16.8292C18.9226 16.6726 18.9386 16.5103 18.9997 16.3629C19.0607 16.2154 19.1642 16.0894 19.2969 16.0007C19.4296 15.912 19.5856 15.8647 19.7453 15.8647C19.9592 15.865 20.1643 15.9502 20.3155 16.1015C20.4668 16.2527 20.5519 16.4578 20.5523 16.6717Z" fill="#49A5E6"/>
<path d="M24.0126 16.6717C24.0126 16.8313 23.9653 16.9874 23.8766 17.1201C23.7879 17.2528 23.6619 17.3562 23.5144 17.4173C23.367 17.4784 23.2047 17.4944 23.0481 17.4632C22.8916 17.4321 22.7478 17.3552 22.6349 17.2424C22.5221 17.1295 22.4452 16.9857 22.4141 16.8292C22.3829 16.6726 22.3989 16.5103 22.46 16.3629C22.5211 16.2154 22.6245 16.0894 22.7572 16.0007C22.8899 15.912 23.046 15.8647 23.2056 15.8647C23.4195 15.865 23.6246 15.9502 23.7759 16.1015C23.9271 16.2527 24.0123 16.4578 24.0126 16.6717Z" fill="#49A5E6"/>
<path d="M3.22125 20.7072C3.22125 20.8669 3.17391 21.0229 3.08524 21.1556C2.99656 21.2883 2.87052 21.3918 2.72305 21.4528C2.57558 21.5139 2.41332 21.5299 2.25677 21.4988C2.10022 21.4676 1.95642 21.3908 1.84355 21.2779C1.73069 21.165 1.65382 21.0212 1.62269 20.8647C1.59155 20.7081 1.60753 20.5459 1.66861 20.3984C1.72969 20.2509 1.83313 20.1249 1.96585 20.0362C2.09856 19.9475 2.2546 19.9002 2.41421 19.9002C2.62814 19.9006 2.8332 19.9857 2.98447 20.137C3.13574 20.2883 3.22088 20.4933 3.22125 20.7072Z" fill="white"/>
<path d="M6.6889 20.7072C6.6889 20.8669 6.64157 21.0229 6.55289 21.1556C6.46421 21.2883 6.33817 21.3918 6.1907 21.4528C6.04324 21.5139 5.88097 21.5299 5.72442 21.4988C5.56787 21.4676 5.42407 21.3908 5.3112 21.2779C5.19834 21.165 5.12148 21.0212 5.09034 20.8647C5.0592 20.7081 5.07518 20.5459 5.13626 20.3984C5.19734 20.2509 5.30078 20.1249 5.4335 20.0362C5.56622 19.9475 5.72225 19.9002 5.88186 19.9002C6.09579 19.9006 6.30085 19.9857 6.45212 20.137C6.60339 20.2883 6.68854 20.4933 6.6889 20.7072Z" fill="white"/>
<path d="M10.1561 20.7072C10.1561 20.8669 10.1087 21.0229 10.0201 21.1556C9.93137 21.2883 9.80533 21.3918 9.65786 21.4528C9.5104 21.5139 9.34813 21.5299 9.19158 21.4988C9.03503 21.4676 8.89123 21.3908 8.77837 21.2779C8.6655 21.165 8.58864 21.0212 8.5575 20.8647C8.52636 20.7081 8.54234 20.5459 8.60342 20.3984C8.66451 20.2509 8.76795 20.1249 8.90066 20.0362C9.03338 19.9475 9.18941 19.9002 9.34903 19.9002C9.56295 19.9006 9.76802 19.9857 9.91929 20.137C10.0706 20.2883 10.1557 20.4933 10.1561 20.7072Z" fill="white"/>
<path d="M13.6169 20.7072C13.6169 20.8669 13.5695 21.0229 13.4809 21.1556C13.3922 21.2883 13.2661 21.3918 13.1187 21.4528C12.9712 21.5139 12.8089 21.5299 12.6524 21.4988C12.4958 21.4676 12.352 21.3908 12.2392 21.2779C12.1263 21.165 12.0495 21.0212 12.0183 20.8647C11.9872 20.7081 12.0032 20.5459 12.0642 20.3984C12.1253 20.2509 12.2288 20.1249 12.3615 20.0362C12.4942 19.9475 12.6502 19.9002 12.8098 19.9002C13.0238 19.9006 13.2288 19.9857 13.3801 20.137C13.5314 20.2883 13.6165 20.4933 13.6169 20.7072Z" fill="white"/>
<path d="M17.0842 20.7072C17.0842 20.8669 17.0368 21.0229 16.9482 21.1556C16.8595 21.2883 16.7334 21.3918 16.586 21.4528C16.4385 21.5139 16.2762 21.5299 16.1197 21.4988C15.9631 21.4676 15.8193 21.3908 15.7065 21.2779C15.5936 21.165 15.5167 21.0212 15.4856 20.8647C15.4545 20.7081 15.4704 20.5459 15.5315 20.3984C15.5926 20.2509 15.696 20.1249 15.8288 20.0362C15.9615 19.9475 16.1175 19.9002 16.2771 19.9002C16.4911 19.9006 16.6961 19.9857 16.8474 20.137C16.9987 20.2883 17.0838 20.4933 17.0842 20.7072Z" fill="white"/>
<path d="M20.5523 20.7072C20.5523 20.8669 20.505 21.0229 20.4163 21.1556C20.3276 21.2883 20.2016 21.3918 20.0541 21.4528C19.9066 21.5139 19.7444 21.5299 19.5878 21.4988C19.4313 21.4676 19.2875 21.3908 19.1746 21.2779C19.0617 21.165 18.9849 21.0212 18.9537 20.8647C18.9226 20.7081 18.9386 20.5459 18.9997 20.3984C19.0607 20.2509 19.1642 20.1249 19.2969 20.0362C19.4296 19.9475 19.5856 19.9002 19.7453 19.9002C19.9592 19.9006 20.1643 19.9857 20.3155 20.137C20.4668 20.2883 20.5519 20.4933 20.5523 20.7072Z" fill="#49A5E6"/>
<path d="M24.0126 20.7072C24.0126 20.8669 23.9653 21.0229 23.8766 21.1556C23.7879 21.2883 23.6619 21.3918 23.5144 21.4528C23.367 21.5139 23.2047 21.5299 23.0481 21.4988C22.8916 21.4676 22.7478 21.3908 22.6349 21.2779C22.5221 21.165 22.4452 21.0212 22.4141 20.8647C22.3829 20.7081 22.3989 20.5459 22.46 20.3984C22.5211 20.2509 22.6245 20.1249 22.7572 20.0362C22.8899 19.9475 23.046 19.9002 23.2056 19.9002C23.4195 19.9006 23.6246 19.9857 23.7759 20.137C23.9271 20.2883 24.0123 20.4933 24.0126 20.7072Z" fill="#49A5E6"/>
<path d="M3.22125 24.7423C3.22125 24.9019 3.17391 25.0579 3.08524 25.1906C2.99656 25.3234 2.87052 25.4268 2.72305 25.4879C2.57558 25.549 2.41332 25.5649 2.25677 25.5338C2.10022 25.5027 1.95642 25.4258 1.84355 25.3129C1.73069 25.2001 1.65382 25.0563 1.62269 24.8997C1.59155 24.7432 1.60753 24.5809 1.66861 24.4334C1.72969 24.286 1.83313 24.1599 1.96585 24.0713C2.09856 23.9826 2.2546 23.9352 2.41421 23.9352C2.62814 23.9356 2.8332 24.0207 2.98447 24.172C3.13574 24.3233 3.22088 24.5283 3.22125 24.7423Z" fill="white"/>
<path d="M6.6889 24.7423C6.6889 24.9019 6.64157 25.0579 6.55289 25.1906C6.46421 25.3234 6.33817 25.4268 6.1907 25.4879C6.04324 25.549 5.88097 25.5649 5.72442 25.5338C5.56787 25.5027 5.42407 25.4258 5.3112 25.3129C5.19834 25.2001 5.12148 25.0563 5.09034 24.8997C5.0592 24.7432 5.07518 24.5809 5.13626 24.4334C5.19734 24.286 5.30078 24.1599 5.4335 24.0713C5.56622 23.9826 5.72225 23.9352 5.88186 23.9352C6.09579 23.9356 6.30085 24.0207 6.45212 24.172C6.60339 24.3233 6.68854 24.5283 6.6889 24.7423Z" fill="white"/>
<path d="M10.1561 24.7423C10.1561 24.9019 10.1087 25.0579 10.0201 25.1906C9.93137 25.3234 9.80533 25.4268 9.65786 25.4879C9.5104 25.549 9.34813 25.5649 9.19158 25.5338C9.03503 25.5027 8.89123 25.4258 8.77837 25.3129C8.6655 25.2001 8.58864 25.0563 8.5575 24.8997C8.52636 24.7432 8.54234 24.5809 8.60342 24.4334C8.66451 24.286 8.76795 24.1599 8.90066 24.0713C9.03338 23.9826 9.18941 23.9352 9.34903 23.9352C9.56295 23.9356 9.76802 24.0207 9.91929 24.172C10.0706 24.3233 10.1557 24.5283 10.1561 24.7423Z" fill="white"/>
<path d="M13.6169 24.7423C13.6169 24.9019 13.5695 25.0579 13.4809 25.1906C13.3922 25.3234 13.2661 25.4268 13.1187 25.4879C12.9712 25.549 12.8089 25.5649 12.6524 25.5338C12.4958 25.5027 12.352 25.4258 12.2392 25.3129C12.1263 25.2001 12.0495 25.0563 12.0183 24.8997C11.9872 24.7432 12.0032 24.5809 12.0642 24.4334C12.1253 24.286 12.2288 24.1599 12.3615 24.0713C12.4942 23.9826 12.6502 23.9352 12.8098 23.9352C13.0238 23.9356 13.2288 24.0207 13.3801 24.172C13.5314 24.3233 13.6165 24.5283 13.6169 24.7423Z" fill="white"/>
<path d="M17.0842 24.7423C17.0842 24.9019 17.0368 25.0579 16.9482 25.1906C16.8595 25.3234 16.7334 25.4268 16.586 25.4879C16.4385 25.549 16.2762 25.5649 16.1197 25.5338C15.9631 25.5027 15.8193 25.4258 15.7065 25.3129C15.5936 25.2001 15.5167 25.0563 15.4856 24.8997C15.4545 24.7432 15.4704 24.5809 15.5315 24.4334C15.5926 24.286 15.696 24.1599 15.8288 24.0713C15.9615 23.9826 16.1175 23.9352 16.2771 23.9352C16.4911 23.9356 16.6961 24.0207 16.8474 24.172C16.9987 24.3233 17.0838 24.5283 17.0842 24.7423Z" fill="white"/>
<path d="M20.5523 24.7423C20.5523 24.9019 20.505 25.0579 20.4163 25.1906C20.3276 25.3234 20.2016 25.4268 20.0541 25.4879C19.9066 25.549 19.7444 25.5649 19.5878 25.5338C19.4313 25.5027 19.2875 25.4258 19.1746 25.3129C19.0617 25.2001 18.9849 25.0563 18.9537 24.8997C18.9226 24.7432 18.9386 24.5809 18.9997 24.4334C19.0607 24.286 19.1642 24.1599 19.2969 24.0713C19.4296 23.9826 19.5856 23.9352 19.7453 23.9352C19.9592 23.9356 20.1643 24.0207 20.3155 24.172C20.4668 24.3233 20.5519 24.5283 20.5523 24.7423Z" fill="#49A5E6"/>
<path d="M9.37701 23.0665C8.91033 23.0665 8.45414 22.9281 8.06611 22.6688C7.67808 22.4095 7.37566 22.041 7.19707 21.6099C7.01848 21.1787 6.97175 20.7043 7.0628 20.2466C7.15384 19.7889 7.37856 19.3684 7.70855 19.0384C8.03854 18.7085 8.45897 18.4837 8.91668 18.3927C9.37439 18.3016 9.84881 18.3484 10.28 18.527C10.7111 18.7056 11.0796 19.008 11.3389 19.396C11.5982 19.784 11.7366 20.2402 11.7366 20.7069C11.7353 21.3323 11.4863 21.9317 11.0441 22.374C10.6018 22.8162 10.0024 23.0652 9.37701 23.0665ZM9.37701 19.2638C9.09159 19.2638 8.81258 19.3485 8.57527 19.507C8.33795 19.6656 8.15299 19.891 8.04377 20.1547C7.93454 20.4183 7.90597 20.7085 7.96165 20.9884C8.01733 21.2684 8.15477 21.5255 8.35659 21.7273C8.55841 21.9291 8.81554 22.0666 9.09547 22.1223C9.3754 22.1779 9.66556 22.1494 9.92925 22.0401C10.1929 21.9309 10.4183 21.746 10.5769 21.5086C10.7355 21.2713 10.8201 20.9923 10.8201 20.7069C10.8188 20.3246 10.6664 19.9582 10.396 19.6879C10.1257 19.4175 9.75935 19.2651 9.37701 19.2638Z" fill="#DA3951"/>
<defs>
<linearGradient id="paint0_linear_12_15007" x1="7.85288" y1="3.8818" x2="24.5407" y2="35.2672" gradientUnits="userSpaceOnUse">
<stop stop-color="#192647" stop-opacity="0.5"/>
<stop offset="1" stop-color="#192647" stop-opacity="0"/>
</linearGradient>
<linearGradient id="paint1_linear_12_15007" x1="27.0152" y1="16.4804" x2="5.78613" y2="16.4804" gradientUnits="userSpaceOnUse">
<stop stop-color="#043263" stop-opacity="0.2"/>
<stop offset="1" stop-color="#043263" stop-opacity="0"/>
</linearGradient>
</defs>
</svg>
