<svg width="32" height="34" viewBox="0 0 32 34" fill="none" xmlns="http://www.w3.org/2000/svg">
<path d="M23.5551 24.7149V10.9259L20.0563 7.4271L16.8597 4.23767H3.46187C3.43466 4.23767 3.40771 4.24304 3.38257 4.25348C3.35744 4.26392 3.33461 4.27922 3.3154 4.29851C3.29619 4.31779 3.28098 4.34067 3.27064 4.36585C3.26029 4.39102 3.25502 4.41799 3.25513 4.44521V30.6755C3.25513 30.7304 3.27691 30.7829 3.31568 30.8217C3.35445 30.8605 3.40704 30.8823 3.46187 30.8823H17.5157C17.8685 31.4614 18.3489 31.9522 18.9203 32.3175C19.4917 32.6827 20.1389 32.9126 20.8126 32.9896C21.4863 33.0667 22.1687 32.9888 22.8078 32.762C23.4468 32.5352 24.0257 32.1655 24.5001 31.681C24.9745 31.1965 25.3321 30.6101 25.5454 29.9664C25.7587 29.3227 25.8222 28.6388 25.7311 27.9669C25.6399 27.2949 25.3965 26.6527 25.0194 26.0891C24.6423 25.5255 24.1414 25.0555 23.5551 24.7149Z" fill="url(#paint0_linear_28_104270)"/>
<path d="M13.6031 0.981812H0.206866C0.151961 0.982022 0.0993769 1.00398 0.0606275 1.04288C0.021878 1.08178 0.000121667 1.13445 0.00012207 1.18935V27.4244C0.00012207 27.4516 0.00546914 27.4785 0.015859 27.5036C0.0262489 27.5286 0.041478 27.5514 0.060676 27.5706C0.079874 27.5898 0.102665 27.6051 0.127748 27.6154C0.152831 27.6258 0.179716 27.6312 0.206866 27.6312H4.07617L16.7989 4.17363L13.6031 0.981812Z" fill="#CDEEFE"/>
<path d="M4.07593 27.6309H20.0931C20.1203 27.631 20.1473 27.6257 20.1724 27.6154C20.1976 27.605 20.2205 27.5898 20.2398 27.5706C20.2591 27.5514 20.2744 27.5286 20.2848 27.5034C20.2952 27.4783 20.3006 27.4514 20.3006 27.4241V7.67447L16.8018 4.17572L4.07593 27.6309Z" fill="#CDEEFE"/>
<path d="M4.07593 27.6309H20.0931C20.1203 27.631 20.1473 27.6257 20.1724 27.6154C20.1976 27.605 20.2205 27.5898 20.2398 27.5706C20.2591 27.5514 20.2744 27.5286 20.2848 27.5034C20.2952 27.4783 20.3006 27.4514 20.3006 27.4241V7.67447L16.8018 4.17572L4.07593 27.6309Z" fill="url(#paint1_linear_28_104270)"/>
<path opacity="0.35" d="M16.8265 12.2018H3.52088C3.46468 12.2094 3.40751 12.2049 3.3532 12.1886C3.29889 12.1722 3.24871 12.1445 3.20601 12.1072C3.16331 12.0698 3.12909 12.0238 3.10565 11.9722C3.0822 11.9206 3.07007 11.8645 3.07007 11.8078C3.07007 11.7511 3.0822 11.695 3.10565 11.6434C3.12909 11.5918 3.16331 11.5458 3.20601 11.5084C3.24871 11.4711 3.29889 11.4434 3.3532 11.427C3.40751 11.4107 3.46468 11.4062 3.52088 11.4138H16.8265C16.9218 11.4267 17.0093 11.4737 17.0726 11.5462C17.1359 11.6186 17.1708 11.7116 17.1708 11.8078C17.1708 11.904 17.1359 11.997 17.0726 12.0694C17.0093 12.1419 16.9218 12.1889 16.8265 12.2018Z" fill="#4AA3E3"/>
<path opacity="0.35" d="M16.8264 14.6316H3.52076C3.42539 14.6188 3.33794 14.5717 3.27461 14.4993C3.21129 14.4268 3.17639 14.3339 3.17639 14.2376C3.17639 14.1414 3.21129 14.0484 3.27461 13.976C3.33794 13.9035 3.42539 13.8565 3.52076 13.8436H16.8264C16.9217 13.8565 17.0092 13.9035 17.0725 13.976C17.1358 14.0484 17.1707 14.1414 17.1707 14.2376C17.1707 14.3339 17.1358 14.4268 17.0725 14.4993C17.0092 14.5717 16.9217 14.6188 16.8264 14.6316Z" fill="#4AA3E3"/>
<path opacity="0.35" d="M16.8264 17.0588H3.52076C3.42539 17.0459 3.33794 16.9989 3.27461 16.9264C3.21129 16.8539 3.17639 16.761 3.17639 16.6648C3.17639 16.5685 3.21129 16.4756 3.27461 16.4031C3.33794 16.3307 3.42539 16.2836 3.52076 16.2708H16.8264C16.9217 16.2836 17.0092 16.3307 17.0725 16.4031C17.1358 16.4756 17.1707 16.5685 17.1707 16.6648C17.1707 16.761 17.1358 16.8539 17.0725 16.9264C17.0092 16.9989 16.9217 17.0459 16.8264 17.0588Z" fill="#4AA3E3"/>
<path opacity="0.35" d="M16.8267 21.9162H3.52105C3.46936 21.9162 3.41818 21.906 3.37042 21.8862C3.32267 21.8665 3.27928 21.8375 3.24273 21.8009C3.20618 21.7644 3.17718 21.721 3.1574 21.6732C3.13762 21.6255 3.12744 21.5743 3.12744 21.5226C3.12744 21.4709 3.13762 21.4197 3.1574 21.372C3.17718 21.3242 3.20618 21.2808 3.24273 21.2443C3.27928 21.2077 3.32267 21.1787 3.37042 21.1589C3.41818 21.1392 3.46936 21.129 3.52105 21.129H16.8267C16.883 21.1209 16.9405 21.1251 16.9951 21.1412C17.0497 21.1573 17.1003 21.185 17.1433 21.2223C17.1863 21.2596 17.2208 21.3057 17.2445 21.3575C17.2681 21.4093 17.2803 21.4656 17.2803 21.5226C17.2803 21.5795 17.2681 21.6358 17.2445 21.6876C17.2208 21.7394 17.1863 21.7856 17.1433 21.8229C17.1003 21.8602 17.0497 21.8879 16.9951 21.904C16.9405 21.9201 16.883 21.9242 16.8267 21.9162Z" fill="#4AA3E3"/>
<path opacity="0.35" d="M16.8266 24.3448H9.34241C9.24705 24.3319 9.1596 24.2849 9.09627 24.2124C9.03295 24.14 8.99805 24.047 8.99805 23.9508C8.99805 23.8545 9.03295 23.7616 9.09627 23.6891C9.1596 23.6167 9.24705 23.5696 9.34241 23.5568H16.8266C16.9219 23.5696 17.0094 23.6167 17.0727 23.6891C17.136 23.7616 17.1709 23.8545 17.1709 23.9508C17.1709 24.047 17.136 24.14 17.0727 24.2124C17.0094 24.2849 16.9219 24.3319 16.8266 24.3448Z" fill="#4AA3E3"/>
<path d="M13.8566 7.67477H20.2975L13.5997 0.981812V7.4227C13.5996 7.45535 13.606 7.48769 13.6184 7.51788C13.6308 7.54808 13.6491 7.57552 13.6721 7.59864C13.6952 7.62176 13.7225 7.64011 13.7527 7.65263C13.7829 7.66514 13.8152 7.67159 13.8478 7.67159L13.8566 7.67477Z" fill="#1973B8"/>
<path d="M22.5044 25.3041C22.5044 26.1848 22.2433 27.0457 21.754 27.778C21.2647 28.5103 20.5692 29.0811 19.7555 29.4181C18.9419 29.7551 18.0465 29.8433 17.1827 29.6715C16.319 29.4997 15.5255 29.0756 14.9028 28.4528C14.28 27.8301 13.8559 27.0366 13.6841 26.1728C13.5123 25.309 13.6004 24.4137 13.9375 23.6C14.2745 22.7863 14.8453 22.0909 15.5775 21.6016C16.3098 21.1123 17.1708 20.8511 18.0515 20.8511C19.2325 20.8511 20.3651 21.3203 21.2002 22.1554C22.0353 22.9905 22.5044 24.1231 22.5044 25.3041Z" fill="#2DCCCD"/>
<path fill-rule="evenodd" clip-rule="evenodd" d="M18.3708 26.743L19.6582 25.4517L20.1409 25.9335L18.0345 28.0328L15.944 25.9494L16.4266 25.4668L17.691 26.7335L17.6918 22.558L18.3708 23.2157V26.743Z" fill="white"/>
<path d="M6.28247 9.20125L5.2066 8.24307L4.13074 9.20125V4.94708L6.28247 4.95662V9.20125Z" fill="#C49735"/>
<path d="M5.20656 7.78257C6.4002 7.78257 7.36784 6.81494 7.36784 5.6213C7.36784 4.42766 6.4002 3.46002 5.20656 3.46002C4.01292 3.46002 3.04529 4.42766 3.04529 5.6213C3.04529 6.81494 4.01292 7.78257 5.20656 7.78257Z" fill="white"/>
<path d="M5.20659 7.059C6.00059 7.059 6.64426 6.41533 6.64426 5.62132C6.64426 4.82732 6.00059 4.18365 5.20659 4.18365C4.41259 4.18365 3.76892 4.82732 3.76892 5.62132C3.76892 6.41533 4.41259 7.059 5.20659 7.059Z" fill="#F8CD50"/>
<defs>
<linearGradient id="paint0_linear_28_104270" x1="3.02373" y1="1.3011" x2="20.7227" y2="34.5886" gradientUnits="userSpaceOnUse">
<stop stop-color="#192647" stop-opacity="0.5"/>
<stop offset="1" stop-color="#192647" stop-opacity="0"/>
</linearGradient>
<linearGradient id="paint1_linear_28_104270" x1="20.3006" y1="15.9029" x2="4.07593" y2="15.9029" gradientUnits="userSpaceOnUse">
<stop stop-color="#003267" stop-opacity="0.1"/>
<stop offset="1" stop-color="#003267" stop-opacity="0"/>
</linearGradient>
</defs>
</svg>
