<svg width="40" height="40" viewBox="0 0 40 40" fill="none" xmlns="http://www.w3.org/2000/svg">
<path fill-rule="evenodd" clip-rule="evenodd" d="M20 11.75C28.25 11.75 31 20 31 20L30.8657 20.3545C30.2266 21.9336 27.2188 28.25 20 28.25C11.75 28.25 9 20 9 20L9.07478 19.7961C9.56396 18.5256 12.5234 11.75 20 11.75ZM20 14.5C16.9624 14.5 14.5 16.9624 14.5 20C14.5 23.0375 16.9624 25.5 20 25.5C23.0376 25.5 25.5 23.0375 25.5 20C25.5 16.9624 23.0376 14.5 20 14.5ZM20.0092 16.3336L20 20.0003L22.5713 17.3868C23.2473 18.052 23.6667 18.9768 23.6667 20C23.6667 22.025 22.025 23.6667 20 23.6667C17.975 23.6667 16.3333 22.025 16.3333 20C16.3333 18.0403 17.8708 16.4396 19.8136 16.3386L20.0092 16.3336Z" fill="#1464A5"/>
</svg>
