<svg width="600" height="600" viewBox="0 0 600 600" fill="none" xmlns="http://www.w3.org/2000/svg"><g clip-path="url(#clip0_6003_178)"><path d="M333.06 600.355C480.882 600.355 600.715 480.522 600.715 332.701C600.715 184.88 480.882 65.0469 333.06 65.0469C185.239 65.0469 65.4062 184.88 65.4062 332.701C65.4062 480.522 185.239 600.355 333.06 600.355Z" fill="url(#paint0_linear_6003_178)"/><path d="M267.654 534.949C415.476 534.949 535.308 415.116 535.308 267.295C535.308 119.474 415.476 -0.359375 267.654 -0.359375C119.833 -0.359375 0 119.474 0 267.295C0 415.116 119.833 534.949 267.654 534.949Z" fill="#1464A5"/><path d="M393.562 31.0391L142.234 503.869C273.471 571.999 435.163 520.666 503.136 389.429C570.324 260.076 521.503 100.739 393.562 31.0391Z" fill="url(#paint1_linear_6003_178)"/><path d="M241.125 367.92V205.758H288.848V414.23H287.278L241.125 367.92Z" fill="#2DCCCD"/><path d="M238.775 149.549C238.932 133.537 251.961 120.665 267.973 120.822C283.986 120.979 296.858 134.008 296.701 150.02C296.544 165.876 283.672 178.748 267.817 178.748C251.647 178.591 238.618 165.562 238.775 149.549Z" fill="#2DCCCD"/></g><defs><linearGradient id="paint0_linear_6003_178" x1="183.162" y1="50.7526" x2="470.306" y2="590.793" gradientUnits="userSpaceOnUse"><stop stop-color="#192647" stop-opacity="0.5"/><stop offset="1" stop-color="#192647" stop-opacity="0"/></linearGradient><linearGradient id="paint1_linear_6003_178" x1="535.396" y1="282.469" x2="142.219" y2="282.469" gradientUnits="userSpaceOnUse"><stop stop-color="#043263" stop-opacity="0.6"/><stop offset="1" stop-color="#043263" stop-opacity="0"/></linearGradient><clipPath id="clip0_6003_178"><rect width="600" height="600" fill="white"/></clipPath></defs></svg>