<svg width="40" height="40" viewBox="0 0 40 40" fill="none" xmlns="http://www.w3.org/2000/svg">
<g clip-path="url(#clip0_3_2332)">
<path d="M40.012 17.4915C40.1119 17.0838 40.0473 16.6967 39.7964 16.0053C39.4171 14.9588 39.2266 14.4364 38.8594 14.0381C38.4706 13.6165 38.0094 13.4148 37.3137 13.2467C35.7776 10.7125 33.6139 8.61723 31.0316 7.16344C28.4493 5.70965 25.5357 4.94645 22.5723 4.94757C22.424 4.94757 22.2766 4.94757 22.1292 4.95274C19.0609 4.89911 16.0339 5.66461 13.36 7.17037C10.6861 8.67612 8.46206 10.8677 6.91713 13.5191C6.74524 13.6195 6.5789 13.7292 6.41885 13.8476C5.36894 14.6335 4.61065 15.7466 4.26368 17.0114C3.90678 18.3527 4.09644 19.7588 4.61454 21.0691C4.45801 23.4739 4.80705 25.8849 5.63917 28.1466C6.47129 30.4082 7.76803 32.4705 9.44582 34.2004C11.1236 35.9304 13.1452 37.2896 15.3804 38.1905C17.6156 39.0914 20.0147 39.5141 22.4232 39.4312H22.5757C23.8455 39.4317 25.1115 39.2924 26.3507 39.0157C26.9065 38.8915 27.4525 38.741 27.9887 38.564C29.4324 38.0867 30.8065 37.4199 32.0749 36.5812C32.2792 36.4458 32.4801 36.3071 32.6783 36.1631C32.9657 35.9533 33.2487 35.7352 33.5275 35.5088C33.7648 35.314 33.9947 35.1128 34.2171 34.9053C34.3611 34.7734 34.5016 34.639 34.6404 34.5027C36.2802 32.8993 37.5827 30.984 38.471 28.8695C39.3593 26.755 39.8155 24.4842 39.8128 22.1907C39.8128 21.639 39.787 21.093 39.7352 20.5527C39.7945 20.4412 39.843 20.3243 39.8801 20.2036C40.0094 19.7286 40.0766 18.8795 39.7378 18.726C39.6772 18.7009 39.6103 18.6955 39.5464 18.7105C39.5671 18.5614 39.5844 18.414 39.5973 18.2717C39.7964 18.0489 39.9386 17.7812 40.012 17.4915Z" fill="url(#paint0_linear_3_2332)"/>
<path d="M18.4991 35.1209C28.0213 35.1209 35.7405 27.4017 35.7405 17.8795C35.7405 8.35735 28.0213 0.638123 18.4991 0.638123C8.97698 0.638123 1.25775 8.35735 1.25775 17.8795C1.25775 27.4017 8.97698 35.1209 18.4991 35.1209Z" fill="#003267"/>
<path d="M23.3725 27.1583C23.338 26.7273 23.3207 26.1152 23.5147 26.1152C23.8113 26.1152 24.3526 26.2687 24.3526 26.4601C24.3526 26.6911 24.0337 26.979 23.3725 27.1583Z" fill="#043263"/>
<mask id="mask0_3_2332" style="mask-type:luminance" maskUnits="userSpaceOnUse" x="1" y="0" width="35" height="36">
<path d="M18.4987 35.1211C28.0208 35.1211 35.7401 27.4018 35.7401 17.8797C35.7401 8.35753 28.0208 0.638306 18.4987 0.638306C8.97655 0.638306 1.25732 8.35753 1.25732 17.8797C1.25732 27.4018 8.97655 35.1211 18.4987 35.1211Z" fill="white"/>
</mask>
<g mask="url(#mask0_3_2332)">
<path d="M29.5009 13.398C29.5009 12.8023 29.4845 12.1532 29.1112 11.6221C28.7793 11.1497 28.2 10.7066 26.9172 10.2937C26.9103 10.2913 26.903 10.2899 26.8957 10.2894H26.8026V10.2704C26.7871 10.2704 26.7422 10.2601 26.6776 10.2454L27.0224 10.1109C27.0427 10.1031 27.0593 10.088 27.0689 10.0685C27.0785 10.049 27.0804 10.0266 27.0741 10.0057C27.02 9.82465 26.991 9.63698 26.9879 9.44799C26.9957 8.99109 27.2828 8.01265 27.1603 6.91954C27.0595 5.98506 26.631 4.31696 24.9724 4.31696C24.3275 4.31855 23.7096 4.57616 23.2546 5.03315C22.7995 5.49014 22.5445 6.10911 22.5457 6.75402C22.5491 6.95125 22.5704 7.14775 22.6095 7.34109C22.6099 7.34482 22.6099 7.34858 22.6095 7.3523C22.625 7.84971 22.8026 8.61006 22.8 9.01437C22.7936 9.18427 22.7679 9.35289 22.7233 9.51696C22.717 9.53733 22.7185 9.55931 22.7274 9.57865C22.7364 9.59799 22.7522 9.61333 22.7718 9.62169C22.7915 9.63005 22.8135 9.63084 22.8336 9.62392C22.8538 9.61699 22.8707 9.60284 22.881 9.5842L22.8879 9.57385C22.8986 9.55581 22.9156 9.5423 22.9355 9.53584C22.9555 9.52939 22.9771 9.53043 22.9964 9.53879C23.0156 9.54714 23.0312 9.56223 23.0401 9.58122C23.049 9.60022 23.0507 9.62181 23.0448 9.64196C23.0092 9.79447 22.9581 9.94295 22.8922 10.0851C22.8869 10.0966 22.8842 10.1092 22.8843 10.1219C22.8844 10.1346 22.8873 10.1471 22.8929 10.1586C22.8984 10.17 22.9064 10.1801 22.9162 10.1881C22.9261 10.1961 22.9376 10.2019 22.95 10.2049L23.1509 10.2557L23.0026 10.2937C21.7138 10.7075 21.1328 11.1514 20.8009 11.6247C20.4284 12.154 20.4103 12.8006 20.4103 13.3963C20.4103 13.4618 20.4672 13.5368 20.5828 13.6032C20.5961 13.6103 20.6074 13.6208 20.6154 13.6337C20.6235 13.6465 20.6279 13.6613 20.6284 13.6764L20.8646 21.0376C20.8646 21.3713 21.0983 23.1601 21.4319 23.1161L25.9078 22.5282H25.9224L29 21.5695C29.0086 21.5695 29.0181 21.5695 29.0267 21.5635C29.3457 21.4514 29.2853 15.8971 29.2853 15.5678V13.6816C29.2855 13.6659 29.2899 13.6506 29.2981 13.6372C29.3063 13.6238 29.318 13.613 29.3319 13.6057C29.4448 13.5376 29.5009 13.4644 29.5009 13.398Z" fill="#004486"/>
<path d="M18.2005 15.09C18.1444 14.8936 18.0773 14.7005 17.9996 14.5116L17.9539 14.403C17.754 13.948 17.5042 13.5167 17.2091 13.1168C17.041 12.8907 16.8465 12.6855 16.6298 12.5056C16.6057 12.4849 16.5807 12.465 16.5557 12.4452C16.4388 12.3533 16.3165 12.2687 16.1893 12.1918C16.1255 12.1538 16.06 12.1159 15.991 12.0806L15.8927 12.0314C15.6089 11.8954 15.3087 11.7966 14.9996 11.7375C14.9445 11.7262 14.8884 11.7168 14.8272 11.7081C14.6274 11.6782 14.4258 11.6629 14.2238 11.6625H13.6729L13.5005 10.5969L13.4919 10.5452C13.5039 10.528 13.516 10.5116 13.5272 10.4943C13.71 10.225 13.8431 9.9252 13.9203 9.609C13.9332 9.54607 13.9496 9.48486 13.966 9.42193C13.9973 9.40573 14.0263 9.38544 14.0522 9.36159C14.2294 9.20039 14.3624 8.9965 14.4384 8.76935C14.5074 8.51073 14.5436 8.05383 14.3608 7.97021C14.328 7.95707 14.2918 7.95436 14.2574 7.96245C14.2686 7.88142 14.2781 7.80211 14.285 7.72452C14.3932 7.60447 14.4705 7.45974 14.51 7.30297C14.5643 7.08228 14.5298 6.87193 14.3936 6.49952C14.1884 5.934 14.0858 5.65124 13.8876 5.43573C13.5669 5.0909 13.1582 5.01676 12.3436 4.86504C11.5807 4.72366 11.1988 4.65211 10.9022 4.87711C10.5764 5.12452 10.4953 5.5728 10.4772 5.85211C10.4711 5.85412 10.4653 5.85703 10.46 5.86073C10.4341 5.84332 10.4046 5.83211 10.3738 5.82797C10.1151 5.80038 9.84359 6.34521 9.73325 6.73142C9.65997 6.99004 9.57032 7.2978 9.68842 7.6228C9.72909 7.72416 9.78085 7.82073 9.84273 7.91073C9.83557 7.90983 9.82833 7.90983 9.82118 7.91073C9.76874 7.92912 9.72548 7.96713 9.70049 8.01676C9.51083 8.32883 9.81601 8.97797 9.86773 9.084C9.94024 9.23244 10.0622 9.35101 10.2126 9.41935C10.2429 9.43157 10.2744 9.44081 10.3065 9.44693C10.3419 9.56417 10.3841 9.69004 10.435 9.8228C10.4505 9.859 10.4686 9.89866 10.4884 9.94004C10.5595 10.086 10.6417 10.2264 10.7341 10.3599C10.7764 10.4202 10.8281 10.4935 10.8893 10.5719C10.8565 10.9426 10.8246 11.3219 10.7919 11.6926C10.7057 11.6995 10.5893 11.6926 10.566 11.6926C10.441 11.6926 10.1401 11.684 10.135 11.684C8.56773 11.6918 7.67118 12.4875 7.2117 13.1099C6.72549 13.7702 6.01428 15.0262 6.01428 16.5314C6.01428 16.2728 6.61256 16.0607 7.39359 16.0193C6.60911 16.0607 6.01428 16.278 6.01428 16.5314C6.01428 16.7038 6.2729 16.853 6.68066 16.9478V18.2987C6.67804 18.3953 6.69685 18.4912 6.73574 18.5797C6.77462 18.6682 6.83262 18.7469 6.90557 18.8103C6.97851 18.8737 7.06459 18.9201 7.15761 18.9463C7.25064 18.9724 7.34831 18.9777 7.44359 18.9616L14.1048 26.2357L16.8832 18.9521C16.9851 18.9724 17.0901 18.9699 17.1908 18.9446C17.2915 18.9193 17.3853 18.8719 17.4654 18.8059C17.5456 18.7399 17.61 18.6569 17.6541 18.5629C17.6982 18.4689 17.7208 18.3663 17.7203 18.2625V16.9521C18.1255 16.8573 18.3867 16.7064 18.3867 16.5357C18.4006 16.0471 18.3377 15.5592 18.2005 15.09ZM14.2539 8.00469C14.2479 8.04693 14.2419 8.0909 14.235 8.12969C14.241 8.08831 14.2479 8.04693 14.2539 8.00469ZM14.1496 8.56504C14.1496 8.50297 14.1436 8.44435 14.1393 8.38659C14.1393 8.36418 14.1376 8.34262 14.1341 8.32193C14.1341 8.28918 14.1281 8.25814 14.1246 8.22711C14.1169 8.15986 14.1091 8.09607 14.1005 8.03487C13.9867 7.27624 13.735 6.95814 13.735 6.95814C13.735 6.95814 14.1031 7.41762 14.1496 8.56504ZM10.1367 8.12969C10.1427 8.11417 10.1488 8.09866 10.1565 8.08142L10.1393 8.1228L10.1367 8.12969ZM10.1608 8.06935C10.1608 8.059 10.1695 8.0478 10.1746 8.03659C10.1695 8.0478 10.1651 8.059 10.1591 8.06935H10.1608ZM10.1798 8.02366C10.1798 8.01159 10.1893 7.99866 10.1945 7.98573C10.1893 7.99866 10.1841 8.01159 10.1798 8.02107V8.02366ZM10.2496 7.8478C10.2548 7.834 10.26 7.82021 10.266 7.80642C10.26 7.82021 10.2548 7.834 10.2496 7.84866V7.8478ZM10.3832 7.4978C10.3884 7.48142 10.3945 7.46418 10.4005 7.4478C10.3936 7.46418 10.3876 7.48142 10.3824 7.4978H10.3832ZM10.4091 7.42624C10.4151 7.40728 10.422 7.38831 10.4289 7.36935C10.4177 7.38831 10.4177 7.40728 10.4082 7.42624H10.4091ZM10.6962 6.39176C10.6962 6.37395 10.6979 6.3567 10.7014 6.34004C10.7002 6.35843 10.6982 6.37682 10.6953 6.39521L10.6962 6.39176ZM10.5169 7.10555C10.5229 7.08745 10.5289 7.06935 10.5341 7.05211C10.5281 7.07279 10.522 7.0909 10.516 7.109L10.5169 7.10555ZM10.541 7.03142C10.5565 6.98228 10.5712 6.93314 10.585 6.88573C10.5703 6.93659 10.5557 6.98659 10.5401 7.03486L10.541 7.03142ZM10.6108 6.79262C10.616 6.77624 10.6203 6.75986 10.6246 6.74348C10.6195 6.76331 10.6151 6.77969 10.61 6.79607L10.6108 6.79262ZM10.6298 6.72193C10.635 6.70383 10.6393 6.68659 10.6436 6.66848C10.6384 6.69004 10.6341 6.70728 10.6289 6.72797L10.6298 6.72193ZM10.647 6.65469C10.6522 6.63314 10.6565 6.61073 10.6617 6.59004C10.6557 6.61417 10.6514 6.63659 10.6462 6.65814L10.647 6.65469ZM10.6781 6.50814C10.6781 6.49435 10.6832 6.48142 10.685 6.46762C10.6824 6.48486 10.6764 6.4978 10.6764 6.51159L10.6781 6.50814ZM10.6884 6.4478C10.6884 6.434 10.6927 6.42193 10.6945 6.409C10.6919 6.42538 10.6901 6.43745 10.6876 6.45124L10.6884 6.4478ZM7.67894 16.0168H7.67463H7.55394H7.67894ZM7.40652 16.0237L7.53152 16.0193L7.40911 16.0237H7.40652Z" fill="#004486"/>
<path d="M23.0904 12.1095C23.047 11.9597 22.9955 11.8123 22.936 11.6681C22.9248 11.6397 22.9128 11.6121 22.9016 11.5819C22.7489 11.2341 22.5578 10.9045 22.3317 10.5992C22.2037 10.4259 22.0552 10.2687 21.8895 10.1311L21.8317 10.0845C21.7426 10.0145 21.6494 9.95005 21.5524 9.89141C21.5033 9.8621 21.4524 9.83365 21.4007 9.80521L21.3248 9.76727C21.1078 9.66347 20.8783 9.58786 20.6421 9.54227C20.5998 9.53452 20.5559 9.52676 20.5128 9.52072C20.3609 9.49804 20.2077 9.48623 20.0541 9.48538H19.6326L19.499 8.67072L19.4929 8.63107L19.5197 8.59228C19.6596 8.38619 19.7615 8.1567 19.8205 7.91469C19.83 7.86728 19.8421 7.81986 19.855 7.77245C19.878 7.75946 19.8994 7.74384 19.9188 7.7259C20.0546 7.60309 20.1562 7.44714 20.2136 7.27331C20.2671 7.07676 20.2947 6.7259 20.155 6.6621C20.1298 6.65187 20.1021 6.64976 20.0757 6.65607C20.0843 6.594 20.0912 6.53279 20.0972 6.47417C20.1801 6.3823 20.2392 6.27164 20.2697 6.15176C20.311 5.97935 20.2843 5.82245 20.1835 5.5371C20.0266 5.10607 19.9481 4.88796 19.7964 4.72417C19.5507 4.45779 19.2386 4.40348 18.6162 4.28796C18.0317 4.17934 17.7404 4.12503 17.5136 4.29659C17.2636 4.48624 17.2024 4.82848 17.1886 5.04228C17.1839 5.04357 17.1794 5.04593 17.1757 5.04917C17.1561 5.03523 17.1332 5.02662 17.1093 5.02417C16.9128 5.00262 16.7041 5.42159 16.6197 5.71383C16.5636 5.90952 16.4947 6.14486 16.5852 6.39572C16.6163 6.47313 16.6559 6.54686 16.7033 6.61555H16.6878C16.6678 6.62229 16.6494 6.63293 16.6335 6.64684C16.6177 6.66074 16.6048 6.67765 16.5955 6.69659C16.4507 6.93538 16.6817 7.43193 16.7231 7.51297C16.7521 7.58325 16.7979 7.64532 16.8566 7.69373C16.9152 7.74213 16.9848 7.77538 17.0593 7.79055C17.0858 7.88021 17.1185 7.9759 17.1576 8.07762C17.1697 8.10521 17.1826 8.13538 17.1981 8.16383C17.2524 8.27541 17.3152 8.38263 17.386 8.48452C17.4188 8.53107 17.4576 8.5871 17.505 8.64745C17.48 8.93021 17.4559 9.22072 17.4309 9.50434C17.3654 9.50952 17.2757 9.50434 17.2585 9.50434C17.1628 9.50434 16.9335 9.49745 16.9274 9.49745C15.7291 9.50348 15.0438 10.1112 14.6921 10.588C14.3197 11.0931 13.7757 12.0535 13.7757 13.2043C13.7757 13.0078 14.2335 12.8449 14.8343 12.813C14.2309 12.8449 13.7774 13.0078 13.7774 13.2043C13.7774 13.3345 13.9783 13.4509 14.2878 13.5233V14.5578C14.2859 14.6317 14.3003 14.705 14.3301 14.7726C14.3599 14.8402 14.4042 14.9004 14.46 14.9489C14.5158 14.9973 14.5816 15.0328 14.6527 15.0529C14.7239 15.0729 14.7985 15.0769 14.8714 15.0647L19.2516 14.488L22.0878 15.0543C22.1654 15.0699 22.2456 15.068 22.3225 15.0489C22.3994 15.0297 22.471 14.9937 22.5323 14.9435C22.5936 14.8932 22.6429 14.83 22.6768 14.7584C22.7107 14.6868 22.7283 14.6086 22.7283 14.5293V13.538C23.0378 13.4656 23.2378 13.3492 23.2378 13.219C23.2472 12.8437 23.1975 12.4693 23.0904 12.1095ZM20.0731 6.694C20.0688 6.72676 20.0645 6.75865 20.0593 6.78969C20.0585 6.75865 20.0636 6.72762 20.0679 6.694H20.0731ZM19.9938 7.12503C19.9938 7.07733 19.9912 7.03164 19.986 6.98797C19.986 6.97072 19.986 6.95434 19.9817 6.93797C19.9774 6.92159 19.9774 6.88969 19.9748 6.86641C19.9688 6.81469 19.9628 6.76555 19.9559 6.719C19.8697 6.13883 19.6766 5.89572 19.6766 5.89572C19.6766 5.89572 19.9533 6.24659 19.9869 7.12331L19.9938 7.12503ZM17.099 6.32417C17.0938 6.3371 17.0895 6.35003 17.0843 6.36383C17.0912 6.35003 17.0955 6.3371 17.1007 6.32417H17.099ZM16.9136 6.79141L16.9283 6.75434C16.9283 6.76555 16.9197 6.77676 16.9154 6.78624L16.9136 6.79141ZM16.9619 6.67245C16.9671 6.65952 16.9722 6.64572 16.9783 6.63193C16.9783 6.64141 16.9697 6.65779 16.9697 6.67072L16.9619 6.67245ZM16.9326 6.74572C16.9353 6.73682 16.9388 6.72817 16.9429 6.71986C16.9409 6.72779 16.9395 6.73586 16.9386 6.744L16.9326 6.74572ZM16.9464 6.71038C16.9464 6.7009 16.9541 6.69141 16.9585 6.68193C16.9602 6.68969 16.9559 6.69917 16.9524 6.70865L16.9464 6.71038ZM16.9998 6.5759C17.0041 6.56555 17.0085 6.55521 17.0119 6.544C17.0145 6.55521 17.0102 6.56383 17.0059 6.57417L16.9998 6.5759ZM17.0188 6.52762C17.0231 6.51727 17.0266 6.50607 17.0309 6.49486C17.0326 6.50434 17.0291 6.51555 17.0248 6.5259L17.0188 6.52762ZM17.0757 6.37848C17.0688 6.39572 17.0628 6.41296 17.0559 6.42934C17.0688 6.41124 17.0748 6.394 17.0817 6.37676L17.0757 6.37848ZM17.1404 6.19745C17.1472 6.17934 17.1541 6.16038 17.1602 6.14141C17.1602 6.15865 17.1533 6.17762 17.1464 6.19572L17.1404 6.19745ZM17.1016 6.30779C17.1016 6.29572 17.1102 6.28279 17.1154 6.26986C17.1162 6.28107 17.1119 6.29659 17.1076 6.30607L17.1016 6.30779ZM17.3412 5.46469C17.3412 5.45176 17.3412 5.43797 17.3455 5.42503C17.3498 5.43452 17.349 5.45003 17.3472 5.46297L17.3412 5.46469ZM17.1843 6.06814C17.1895 6.05521 17.1938 6.04141 17.1981 6.02762C17.1998 6.03797 17.1955 6.05434 17.1904 6.06728L17.1843 6.06814ZM17.2283 5.95176C17.2404 5.91383 17.2516 5.87676 17.2619 5.83969C17.2516 5.87762 17.2404 5.91469 17.2283 5.95176ZM17.2662 5.82676C17.2662 5.81297 17.274 5.79917 17.2774 5.78538C17.274 5.80003 17.2697 5.81383 17.2662 5.82762V5.82676ZM17.3093 5.66383C17.3093 5.64659 17.3171 5.63021 17.3205 5.61383C17.3145 5.63107 17.3145 5.64745 17.3093 5.66469V5.66383ZM17.3412 5.50521C17.3412 5.49486 17.3412 5.48538 17.3455 5.4759C17.3438 5.48624 17.3429 5.49572 17.3412 5.50607V5.50521ZM14.8309 12.825H14.9266H14.8326H14.8309Z" fill="#004486"/>
<path d="M2.30925 9.62939C3.14063 9.00075 4.14675 8.6459 5.18856 8.61388C6.36787 8.58284 7.68856 8.93629 8.51356 9.71646C9.64459 10.7863 9.7627 11.8449 9.6808 13.2665C9.64201 13.9397 9.6489 14.6458 9.98683 15.2492C10.9937 17.0509 12.0394 17.4751 12.0601 19.8665C12.0679 20.863 13.2308 21.6768 12.3144 22.238C13.8937 22.994 14.7894 24.7027 14.548 26.2897C14.3067 27.8768 13.0049 29.2751 11.3437 29.8742C9.68252 30.4734 7.71011 30.213 6.0377 29.7285C4.43683 29.2647 3.54718 27.1975 3.69545 25.8078C3.73338 25.4484 4.96959 22.6009 5.26873 22.8872C3.79632 21.4794 2.30925 20.0509 1.26528 18.3656C0.221316 16.6803 -0.348511 14.6699 0.150627 12.7923C0.497586 11.5278 1.2559 10.4149 2.3058 9.62939" fill="#0065AA"/>
<path d="M12.5533 30.8521C12.5533 30.3348 12.905 30.0693 13.0223 30.0693C14.6654 30.0693 15.443 29.5719 15.443 29.2072C15.443 27.8607 15.405 26.3978 14.5628 25.1986C13.8128 24.1305 12.4999 23.1297 9.58951 22.1943C9.57744 22.19 8.41795 22.1417 8.19468 22.1426C8.15244 22.1426 7.94382 22.1469 7.78951 22.1348C7.6602 23.0495 6.64123 24.0512 5.25933 24.0693C5.2352 24.0693 5.21192 24.0693 5.18778 24.0693C5.16364 24.0693 5.14123 24.0693 5.11709 24.0693C3.73778 24.0512 2.71623 23.0495 2.58692 22.1348C2.43261 22.1469 2.22399 22.1426 2.18175 22.1426C1.95847 22.1426 0.802437 22.19 0.78692 22.1943C-2.12342 23.1288 -3.43722 24.1305 -4.18636 25.1986C-5.0286 26.3978 -5.06653 27.8607 -5.06653 29.2072C-5.06653 29.5728 -4.29067 30.0693 -2.64584 30.0693C-2.5286 30.0693 -2.17687 30.3391 -2.17687 30.8521C-2.17687 31.2064 -0.653597 31.4409 -1.5898 31.5978C-2.53205 32.9771 -4.0898 34.8909 -3.55791 34.821L5.18778 33.365L13.9343 34.8202C14.4645 34.89 12.9085 32.9753 11.9662 31.5969C11.03 31.4409 12.5533 31.2098 12.5533 30.8521Z" fill="#D4EDFC"/>
<path d="M12.5533 30.8521C12.5533 30.3348 12.905 30.0693 13.0223 30.0693C14.6654 30.0693 15.443 29.5719 15.443 29.2072C15.443 27.8607 15.405 26.3978 14.5628 25.1986C13.8128 24.1305 12.4999 23.1297 9.58953 22.1943C9.57746 22.19 8.41797 22.1417 8.1947 22.1426C8.15246 22.1426 7.94383 22.1469 7.78952 22.1348C7.66539 23.0159 6.71452 23.9779 5.40935 24.0633L-0.0130615 34.2314L5.18608 33.3693L13.9326 34.8245C14.4628 34.8943 12.9068 32.9797 11.9645 31.6012C11.03 31.4409 12.5533 31.2098 12.5533 30.8521Z" fill="url(#paint1_linear_3_2332)"/>
<path d="M9.09123 22.245C8.99037 22.832 8.81882 25.2622 5.21192 25.2622C1.5852 25.2622 1.21537 22.5838 1.29813 22.3777C1.31279 22.3398 1.39727 22.326 1.45934 22.3019C1.91623 22.1295 2.82917 21.8286 3.25244 21.3062C3.44892 21.063 3.58959 20.7796 3.66451 20.476C3.70158 20.3484 3.73779 20.2053 3.77486 20.0398C3.84837 19.6788 3.89819 19.3134 3.92399 18.9458C3.93261 18.8372 3.9421 18.7226 3.9533 18.595C3.98089 18.2364 4.01365 17.7941 4.05072 17.2295C4.05389 17.1575 4.06635 17.0862 4.08779 17.0174C4.10132 16.9758 4.11954 16.9359 4.1421 16.8984C4.53003 16.245 6.15589 16.1381 6.53261 16.6536C6.63175 16.7898 6.61882 16.9407 6.60417 17.1036C6.60417 17.1105 6.60417 17.1174 6.60417 17.1243C6.56909 17.4968 6.55413 17.8709 6.55934 18.245C6.55934 18.3243 6.55934 18.401 6.55934 18.4769C6.55934 18.6062 6.57055 18.7295 6.5783 18.8458C6.59427 19.1508 6.63056 19.4543 6.68692 19.7545C6.81882 20.4234 6.9102 20.8838 7.33348 21.2114C7.7949 21.5602 8.29157 21.8598 8.81537 22.1053C8.87917 22.1433 9.10072 22.1993 9.09123 22.245Z" fill="#FFAF75"/>
<path opacity="0.48" d="M7.38091 16.8402C7.32833 17.2781 7.27315 17.716 7.21884 18.154C7.19039 18.2281 7.16022 18.2979 7.13264 18.3652C6.95898 18.762 6.7078 19.1202 6.39384 19.4186C5.74298 20.029 5.14815 20.0367 4.27229 20.7385C3.97229 20.9781 3.3404 21.1635 3.24988 21.2842C3.79126 20.7204 4.03436 17.7617 4.08005 17.0023C4.08372 16.906 4.09877 16.8105 4.12488 16.7178L7.18867 16.8324L7.38091 16.8402Z" fill="#EA6B02"/>
<path d="M26.3749 30.2625C26.3749 30.7936 24.9956 31.2246 23.299 31.2246C21.6025 31.2246 20.2231 30.7936 20.2231 30.2625C20.2231 29.7315 21.6025 29.3013 23.299 29.3013C24.9956 29.3013 26.3749 29.7341 26.3749 30.2625Z" fill="#043263"/>
<path d="M40.93 23.9347C40.08 22.7821 38.3206 21.2623 35.4214 21.2442C35.4076 21.2442 34.7318 21.2442 34.6102 21.2442C34.5895 21.2442 34.4507 21.2442 34.4007 21.2442C34.3318 22.2183 33.1645 23.2908 31.68 23.3063C30.2516 23.2873 29.1981 22.2485 29.0645 21.3011C28.9059 21.3132 28.6895 21.3097 28.6464 21.3089C28.4154 21.3089 27.8594 21.2925 27.8456 21.2925C24.9464 21.308 23.2887 22.7787 22.4387 23.9304C21.5378 25.152 20.2231 27.4761 20.2231 30.2597C20.2231 29.7287 21.6025 29.2985 23.299 29.2985C24.9956 29.2985 25.8335 29.7295 25.8335 30.2597C25.8335 30.627 25.7154 30.9494 24.7473 31.108C23.7731 32.5373 22.1611 34.5218 22.7128 34.4494L31.8507 32.9244L40.1594 33.8632C40.9292 33.9649 37.9378 30.5925 37.9378 29.8226C37.9378 29.8226 43.1042 30.3873 43.1102 30.2649C43.2033 27.483 41.8309 25.1554 40.93 23.9347Z" fill="#00A7EC"/>
<path d="M26.3498 31.1999L25.8326 30.2646C25.8326 29.7336 24.9964 29.3034 23.2981 29.3034C22.6776 29.2982 22.0584 29.363 21.4524 29.4965V33.5379C21.4524 34.3137 22.0852 34.8663 22.8645 34.7637L39.8636 32.5224C40.2027 32.4701 40.5174 32.3148 40.7651 32.0774C41.0128 31.84 41.1815 31.5322 41.2481 31.1956L26.3498 31.1999Z" fill="#EE8C39"/>
<path d="M40.9302 23.9347C40.0802 22.7821 38.3207 21.2623 35.4216 21.2442C35.4078 21.2442 34.7319 21.2442 34.6103 21.2442C34.5897 21.2442 34.4509 21.2442 34.4009 21.2442C34.3362 22.1649 33.2888 23.1735 31.9207 23.2933L27.5552 31.5028L31.8517 32.9252L40.1595 33.8632C40.9293 33.9649 37.9379 30.5925 37.9379 29.8226C37.9379 29.8226 43.1043 30.3873 43.1103 30.2649C43.2034 27.483 41.831 25.1554 40.9302 23.9347Z" fill="url(#paint2_linear_3_2332)"/>
<path d="M34.6276 30.3685L35.7612 28.472L35.7922 28.4194L35.8172 28.3978L37.2017 27.2047C37.2414 27.1694 37.2929 27.1503 37.346 27.1511C37.3991 27.1519 37.45 27.1726 37.4885 27.2091C37.5271 27.2456 37.5506 27.2953 37.5543 27.3483C37.558 27.4013 37.5417 27.4537 37.5086 27.4953L37.4966 27.5116L36.3707 28.9772L36.4647 28.8539L35.6586 30.928C35.6308 31.0002 35.589 31.0662 35.5355 31.1222C35.4821 31.1782 35.4182 31.2231 35.3474 31.2544C35.2766 31.2856 35.2003 31.3025 35.123 31.3042C35.0456 31.3059 34.9687 31.2923 34.8966 31.2642C34.5931 31.1461 34.1948 31.2039 34.3129 30.9004C34.325 30.8703 34.5862 30.4427 34.6017 30.4151L34.6276 30.3685Z" fill="#EE8C39"/>
<path d="M35.1697 31.6088C35.2439 31.7813 35.6413 32.4114 35.8016 32.3433C36.7146 31.9519 38.8016 30.2916 39.1292 29.6813C39.4844 29.2088 38.6473 27.1683 38.4714 27.1123C38.0646 26.9821 35.468 30.1614 35.468 30.1614C33.8456 31.0907 34.9697 31.1407 35.1697 31.6088Z" fill="#EE8C39"/>
<path d="M37.5999 31.1665L38.5948 30.3113C38.9017 30.0415 39.2603 29.6139 39.2163 29.3372C39.4868 29.3119 39.7584 29.3007 40.0301 29.3035C40.6498 29.2985 41.2681 29.3632 41.8732 29.4966V33.4622C41.8736 33.6542 41.8313 33.8438 41.7493 34.0174C41.6673 34.191 41.5476 34.3442 41.399 34.4657C41.2505 34.5873 41.0767 34.6743 40.8903 34.7204C40.7039 34.7664 40.5096 34.7704 40.3215 34.732L26.6146 31.9923C26.3821 31.9458 26.1735 31.8185 26.0258 31.633C25.8781 31.4474 25.8009 31.2156 25.8077 30.9785C25.812 30.8061 25.8206 30.6113 25.8353 30.2622L37.5999 31.1665Z" fill="#FFAF75"/>
<path d="M27.6531 35.1528C27.6531 34.5778 28.048 34.2752 28.179 34.2752C30.0212 34.2752 30.8919 33.7183 30.8919 33.3079C30.8919 31.7993 30.8497 30.1588 29.9057 28.8148C29.0643 27.6174 27.5937 26.4942 24.3316 25.4467C24.3178 25.4424 23.0178 25.389 22.7678 25.3898C22.7204 25.3898 22.4859 25.3898 22.3135 25.3812C22.1687 26.4054 21.0264 27.5295 19.4773 27.5493H19.398H19.3178C17.7661 27.5295 16.6264 26.4054 16.4816 25.3812C16.3092 25.3942 16.0747 25.3898 16.0273 25.3898C15.7781 25.3898 14.4755 25.4424 14.4635 25.4467C11.2023 26.4942 9.73072 27.6174 8.88934 28.8148C7.94107 30.1588 7.90314 31.7993 7.90314 33.3079C7.90314 33.7183 7.9109 35.4045 9.75314 35.4045C9.88417 35.4045 11.0859 35.4967 11.0859 36.0709C11.0859 36.4683 12.8497 35.8123 11.7997 35.9847C10.7437 37.5304 8.99969 39.6769 9.59365 39.5993L19.398 37.9674L29.2014 39.5993C29.7954 39.6769 28.0514 37.5304 26.9954 35.9847C25.9454 35.8131 27.6531 35.5502 27.6531 35.1528Z" fill="#00D0CF"/>
<path d="M27.6535 35.1528C27.6535 34.5778 28.0483 34.2752 28.1793 34.2752C30.0216 34.2752 30.8922 33.7183 30.8922 33.3079C30.8922 31.7993 30.85 30.1588 29.906 28.8148C29.0647 27.6174 27.594 26.4942 24.3319 25.4467C24.3181 25.4424 23.0181 25.389 22.7681 25.3898C22.7207 25.3898 22.4862 25.3898 22.3138 25.3812C22.1741 26.3683 21.1069 27.4502 19.6457 27.5424L13.569 38.9407L19.3983 37.9709L29.2017 39.6028C29.7957 39.6804 28.0517 37.5338 26.9957 35.9881C25.9457 35.8131 27.6535 35.5502 27.6535 35.1528Z" fill="url(#paint3_linear_3_2332)"/>
<path d="M13.3965 24.6411C13.3965 24.6411 13.9456 23.2368 13.9542 22.21C13.9629 21.1833 13.5077 19.248 13.4732 17.9859L14.8896 17.6523L24.1663 18.2937C24.1663 18.2937 24.5353 22.4799 24.5353 23.3014C24.5473 23.8461 24.643 24.3858 24.8189 24.9014C24.8189 24.9014 23.6344 25.373 23.5827 25.3807C23.531 25.3885 15.2068 25.4411 14.9844 25.3807C14.762 25.3204 14.0654 25.1497 14.0654 25.1497C14.4765 24.3831 14.6973 23.5289 14.7094 22.6592C14.7094 22.6592 14.1689 23.8445 13.3965 24.6411Z" fill="#0065AA"/>
<path d="M17.4076 22.9278C17.4076 22.9278 17.1283 24.1416 16.8834 24.4123C16.6386 24.683 15.9955 25.052 15.5188 25.1744L14.4653 25.4468C14.705 27.0985 16.7627 28.3882 19.2671 28.3882C21.1291 28.3882 22.7438 27.6753 23.5481 26.6313C23.7649 26.3234 23.9305 25.9825 24.0386 25.6218C24.0563 25.5439 24.0692 25.465 24.0774 25.3856C23.253 25.2442 22.4725 24.9137 21.7972 24.4201C21.3533 24.0839 21.2464 22.9546 21.2464 22.9546C21.2464 22.9546 22.8662 21.9132 23.2774 18.0106L23.6308 15.3951L15.3033 15.452L15.2541 18.9287C15.2541 18.9287 15.8791 21.8296 17.4076 22.9278Z" fill="#FFAF75"/>
<path d="M13.4732 17.9907C13.3734 17.4973 13.3189 16.9958 13.3103 16.4925C13.3103 13.1976 15.9534 10.3295 19.4465 10.3295C23.6431 10.3295 24.725 14.5485 24.9819 16.9123C25.2819 19.6769 24.5551 22.1502 24.5353 23.3063C24.5155 24.4623 23.3284 19.1614 23.2008 18.164C23.1181 17.3631 22.974 16.5696 22.7698 15.7907C22.225 15.948 21.6695 16.0653 21.1077 16.1416L20.8077 15.5942L20.5672 16.1847C20.5672 16.1847 18.7396 16.2709 15.9844 15.8338L15.1982 19.5726L13.4732 17.9907Z" fill="#0065AA"/>
<path opacity="0.48" d="M20.3518 23.4703C19.5665 23.7048 19.1087 23.7496 18.651 23.616C18.1946 23.4716 17.7719 23.2371 17.4079 22.9263C17.4011 23.0004 17.3834 23.073 17.3553 23.1418C17.2622 23.5022 17.063 24.2117 16.882 24.4108C16.6662 24.6183 16.4189 24.7902 16.1492 24.9203C19.1622 24.966 20.4285 23.4513 20.3518 23.4703Z" fill="#EA6B02"/>
<path d="M7.90314 33.2953C7.90314 33.4832 8.08676 33.7013 8.46176 33.8832V32.96C8.17641 33.0263 7.90314 33.1513 7.90314 33.2953Z" fill="#043263"/>
</g>
<path d="M3.80796 19.9492C3.87999 19.5881 3.92837 19.2227 3.95279 18.8553C3.96227 18.7475 3.97176 18.632 3.9821 18.5044C4.01055 18.1458 4.04245 17.7035 4.08038 17.1389C4.0832 17.0668 4.09566 16.9955 4.11745 16.9268C4.13061 16.8851 4.14885 16.8451 4.17176 16.8078C4.55883 16.1544 6.18555 16.0484 6.56227 16.563C6.66141 16.7001 6.64848 16.8501 6.63296 17.013C6.63296 17.0199 6.63296 17.0268 6.63296 17.0337C6.59834 17.4062 6.58338 17.7803 6.58814 18.1544C6.58814 18.2337 6.58814 18.3104 6.58814 18.3863C6.58814 18.5156 6.59934 18.6389 6.60624 18.7561C6.62275 19.061 6.65904 19.3645 6.71486 19.6647C6.84676 20.3328 6.93814 20.7932 7.36141 21.1208C7.82273 21.4698 8.31942 21.7694 8.84331 22.0147C8.87395 22.0313 8.90597 22.0451 8.939 22.0561C8.97719 22.0702 9.01731 22.0783 9.05796 22.0803C9.35452 22.0915 9.61486 22.1035 9.6209 22.1053C11.2295 22.6225 12.3502 23.1596 13.1554 23.7173C13.5157 23.9665 14.0373 23.7423 13.7519 23.4087C13.5037 23.1182 13.1183 22.6113 12.7873 22.3975C12.7421 22.3686 12.7036 22.3304 12.6743 22.2854C12.645 22.2405 12.6257 22.1898 12.6175 22.1368C12.6094 22.0838 12.6126 22.0296 12.627 21.978C12.6414 21.9263 12.6667 21.8783 12.7011 21.8371C13.2959 21.1346 13.3735 19.894 13.1666 19.2863C12.7468 18.0535 11.3769 16.9828 10.37 15.1811C10.0321 14.5777 9.67089 13.8518 9.70969 13.1777C9.79158 11.7561 9.67434 10.6975 8.54245 9.62766C7.71831 8.8518 6.39676 8.49491 5.21831 8.52508C4.17626 8.5572 3.16989 8.91204 2.33814 9.54059C1.28852 10.3264 0.530286 11.4392 0.182964 12.7035C-0.315312 14.5811 0.254516 16.5828 1.29848 18.2734C1.80983 19.0816 2.3951 19.8406 3.04676 20.5406C3.09184 20.5907 3.14948 20.628 3.21373 20.6484C3.27798 20.6689 3.34652 20.6718 3.4123 20.657C3.47808 20.6421 3.53871 20.61 3.58795 20.564C3.63719 20.5179 3.67326 20.4595 3.69245 20.3949V20.3871C3.73469 20.2613 3.77003 20.1147 3.80796 19.9492Z" fill="#0065AA"/>
<path d="M1.51996 14.0102C1.45358 14.5361 1.47427 16.3206 2.63548 17.9559C2.94668 18.3947 3.31823 19.3352 4.47513 19.6232C5.10723 19.7767 5.77094 19.7358 6.37944 19.5059C7.75875 18.9697 7.9372 17.5887 8.23634 16.8335C8.78548 15.4387 9.0122 14.2473 8.97427 13.9766C8.89841 13.4085 8.73203 12.1533 7.69841 11.1318C7.34485 10.7998 6.9281 10.5424 6.47298 10.3749C6.01785 10.2074 5.53367 10.1332 5.04927 10.1568C4.57381 10.1781 4.10749 10.2948 3.67802 10.4999C3.24855 10.705 2.8647 10.9944 2.54927 11.3508C1.73375 12.3068 1.60186 13.3577 1.51996 14.0102Z" fill="#FFAF75"/>
<path d="M1.65442 11.0224C1.65442 11.0224 3.05356 14.1638 8.21304 16.081C13.3725 17.9982 7.68287 9.956 7.68287 9.956L3.82338 9.47583L1.65442 11.0224Z" fill="#0065AA"/>
<path d="M27.9931 17.1001C28.0489 17.1224 28.1066 17.1394 28.1655 17.151C28.231 17.3674 28.3094 17.6001 28.4034 17.8458C28.4319 17.9131 28.4646 17.9864 28.5025 18.0639C28.6336 18.334 28.7855 18.5934 28.9569 18.8398C29.0344 18.9527 29.1293 19.0881 29.2448 19.2329C29.1836 19.9183 29.125 20.6208 29.0638 21.3062C29.187 22.2545 30.2431 23.2889 31.6793 23.3114C33.1646 23.2958 34.3319 22.2234 34.4 21.2493L34.0775 19.2786L34.062 19.1829C34.0836 19.151 34.106 19.12 34.1267 19.0889C34.4651 18.5908 34.7116 18.0361 34.8543 17.451C34.8784 17.3355 34.9077 17.2217 34.9405 17.1062C34.9968 17.0752 35.0489 17.0373 35.0957 16.9933C35.4234 16.6956 35.669 16.3186 35.8086 15.8984C35.9379 15.4234 36.0043 14.5743 35.6663 14.4208C35.6055 14.3954 35.5382 14.3899 35.4741 14.4053C35.4741 14.4329 35.4681 14.4579 35.4646 14.4855C35.4215 14.7907 35.3672 15.0751 35.3086 15.3476C35.2965 15.4053 35.2853 15.4674 35.2715 15.52C35.2672 15.4053 35.2603 15.2958 35.2525 15.1889L35.2422 15.0691C35.237 15.0096 35.231 14.9519 35.225 14.8967C35.212 14.7734 35.1974 14.6545 35.1801 14.5415C34.9706 13.1381 34.5043 12.5493 34.5043 12.5493C31.0638 12.8286 29.5319 11.9984 28.8922 11.4139C28.8224 12.2864 28.112 14.076 27.8534 14.7053C27.8396 14.7389 27.8267 14.7682 27.8163 14.7915L27.812 14.8001C27.7913 14.8519 27.7758 14.8864 27.7672 14.9088C27.767 14.9114 27.767 14.9139 27.7672 14.9165L27.762 14.9277C27.7284 14.8803 27.5086 14.6088 27.3103 14.3062C27.2973 14.3063 27.2843 14.3078 27.2715 14.3105C27.1743 14.3439 27.0941 14.4142 27.0482 14.5062C26.6982 15.0829 27.2629 16.2838 27.3569 16.4803C27.4008 16.5726 27.6138 16.9596 27.9931 17.1001Z" fill="#FFAF75"/>
<path d="M35.726 11.6958C35.3458 10.6501 35.1561 10.1268 34.7889 9.7294C34.1958 9.0863 33.4406 8.95354 31.9337 8.67423C30.5217 8.4113 29.8156 8.28026 29.2674 8.69578C28.6639 9.15354 28.5148 9.98199 28.4811 10.5001C28.4696 10.503 28.4587 10.5083 28.4493 10.5156C28.4015 10.4828 28.3464 10.4621 28.2889 10.4553C27.8139 10.4027 27.3087 11.4165 27.1053 12.126C26.9691 12.5992 26.8036 13.1742 27.0191 13.7751C27.176 14.2061 27.7027 14.851 27.7561 14.9268C27.7561 14.9268 28.8036 12.4794 28.8898 11.4096C29.5294 11.9941 31.0613 12.8242 34.5018 12.5449C34.5018 12.5449 35.1837 13.401 35.2691 15.5199C35.3441 15.2001 35.4105 14.8535 35.4622 14.4854C35.4872 14.307 35.507 14.1337 35.5234 13.9682C35.7227 13.7451 35.8653 13.4771 35.9389 13.1872C36.0406 12.7742 35.9768 12.3872 35.726 11.6958Z" fill="#0065AA"/>
<path opacity="0.48" d="M29.9545 22.7098C30.0321 22.6382 30.114 22.5649 30.2045 22.4891C31.2209 21.6356 31.9088 21.627 32.6649 20.8865C32.9316 20.6208 33.1574 20.3169 33.3347 19.9848C33.2202 20.0802 33.0995 20.1681 32.9735 20.2477C32.4999 20.5373 31.945 20.6649 31.3924 20.6115C30.6657 20.533 30.1855 20.1365 29.8476 19.8555C29.6274 19.6718 29.4274 19.4652 29.2511 19.2391C29.189 19.9287 29.1269 20.6184 29.0648 21.308C29.1347 21.8029 29.458 22.3236 29.9545 22.7098Z" fill="#EA6B02"/>
</g>
<defs>
<linearGradient id="paint0_linear_3_2332" x1="14.4749" y1="6.56999" x2="30.8283" y2="37.3269" gradientUnits="userSpaceOnUse">
<stop stop-color="#072146" stop-opacity="0.5"/>
<stop offset="1" stop-color="#072146" stop-opacity="0"/>
</linearGradient>
<linearGradient id="paint1_linear_3_2332" x1="15.443" y1="28.4788" x2="-0.0113371" y2="28.4788" gradientUnits="userSpaceOnUse">
<stop offset="0.01" stop-color="#003267" stop-opacity="0.1"/>
<stop offset="1" stop-color="#003267" stop-opacity="0"/>
</linearGradient>
<linearGradient id="paint2_linear_3_2332" x1="43.1112" y1="27.5545" x2="27.5552" y2="27.5545" gradientUnits="userSpaceOnUse">
<stop stop-color="#003267" stop-opacity="0.4"/>
<stop offset="1" stop-color="#003267" stop-opacity="0"/>
</linearGradient>
<linearGradient id="paint3_linear_3_2332" x1="30.8922" y1="32.4924" x2="13.569" y2="32.4924" gradientUnits="userSpaceOnUse">
<stop stop-color="#008785" stop-opacity="0.6"/>
<stop offset="1" stop-color="#008785" stop-opacity="0"/>
</linearGradient>
<clipPath id="clip0_3_2332">
<rect width="40" height="40" fill="white"/>
</clipPath>
</defs>
</svg>
