<svg xmlns="http://www.w3.org/2000/svg" viewBox="0 0 283.5 84.9" style="enable-background:new 0 0 283.5 84.9" xml:space="preserve"><path d="m204.2 11.5-24.4 46.4c-.5 1-2 1-2.6 0l-24.4-46.4c-.2-.5-.7-.8-1.2-.8h-11.8c-.8 0-1.3.9-.9 1.6l38.4 71.9c.5 1 2 1 2.5 0l38.4-71.9c.4-.7-.1-1.6-.9-1.6h-11.8c-.6.1-1.1.4-1.3.8zM218 73.4 242.4 27c.5-1 2-1 2.6 0l24.4 46.4c.2.5.7.8 1.2.8h11.8c.8 0 1.3-.8.9-1.6L244.9.8c-.5-1-2-1-2.5 0L204 72.6c-.4.7.1 1.6.9 1.6h11.8c.6 0 1.1-.3 1.3-.8zM51.4 45c5.1-2.5 8.3-8.1 8.3-14.8 0-11.5-9-19.4-21.7-19.4H1.4c-.8 0-1.4.6-1.4 1.4v71.4c0 .7.6 1.4 1.4 1.4h34.9C53.8 85 63 77.5 63 62.7 63.1 48.3 51.4 45 51.4 45zM13.7 21.5h21.7c8 0 12.1 3.4 12.1 9.7 0 6.3-4 9.7-12.1 9.7H13.7c-.8 0-1.4-.6-1.4-1.4V22.9c0-.8.6-1.4 1.4-1.4zm22 52.7h-22c-.8 0-1.4-.6-1.4-1.4V53.1c0-.8.6-1.4 1.4-1.4h22c10.5 0 15.2 3 15.2 11.3s-4.7 11.2-15.2 11.2zM126.4 45c5.1-2.5 8.3-8.1 8.3-14.8 0-11.5-9-19.4-21.7-19.4H76.4c-.8 0-1.4.6-1.4 1.4v71.4c0 .8.6 1.4 1.4 1.4h34.9c17.5 0 26.7-7.5 26.7-22.3 0-14.4-11.6-17.7-11.6-17.7zM88.7 21.5h21.7c8 0 12.1 3.4 12.1 9.7 0 6.3-4.1 9.7-12.1 9.7H88.7c-.8 0-1.4-.6-1.4-1.4V22.9c-.1-.8.6-1.4 1.4-1.4zm21.9 52.7h-22c-.8 0-1.4-.6-1.4-1.4V53.1c0-.8.6-1.4 1.4-1.4h22c10.5 0 15.2 3 15.2 11.3s-4.6 11.2-15.2 11.2z" style="fill:#fff"/></svg>